<?xml version="1.0" encoding="UTF-8" standalone="no"?>
<!-- Created with Inkscape (http://www.inkscape.org/) -->

<svg
   xmlns:dc="http://purl.org/dc/elements/1.1/"
   xmlns:cc="http://creativecommons.org/ns#"
   xmlns:rdf="http://www.w3.org/1999/02/22-rdf-syntax-ns#"
   xmlns:svg="http://www.w3.org/2000/svg"
   xmlns="http://www.w3.org/2000/svg"
   xmlns:sodipodi="http://sodipodi.sourceforge.net/DTD/sodipodi-0.dtd"
   xmlns:inkscape="http://www.inkscape.org/namespaces/inkscape"
   width="170"
   height="170"
   viewBox="0 0 44.978 44.981"
   version="1.1"
   id="svg938"
   inkscape:version="0.92.3 (2405546, 2018-03-11)"
   sodipodi:docname="america.svg">
  <defs
     id="defs932" />
  <sodipodi:namedview
     id="base"
     pagecolor="#ffffff"
     bordercolor="#666666"
     borderopacity="1.0"
     inkscape:pageopacity="0.0"
     inkscape:pageshadow="2"
     inkscape:zoom="1.9799"
     inkscape:cx="26.539"
     inkscape:cy="29.76"
     inkscape:document-units="mm"
     inkscape:current-layer="layer1"
     showgrid="false"
     units="px"
     inkscape:window-width="1920"
     inkscape:window-height="1027"
     inkscape:window-x="1592"
     inkscape:window-y="-8"
     inkscape:window-maximized="1" />
  <metadata
     id="metadata935">
    <rdf:RDF>
      <cc:Work
         rdf:about="">
        <dc:format>image/svg+xml</dc:format>
        <dc:type
           rdf:resource="http://purl.org/dc/dcmitype/StillImage" />
        <dc:title></dc:title>
      </cc:Work>
    </rdf:RDF>
  </metadata>
  <g
     inkscape:label="Capa 1"
     inkscape:groupmode="layer"
     id="layer1"
     transform="translate(0,-252.03)">
    <g
       id="g1553"
       transform="matrix(0.08558,0,0,0.08558,-3.3342,244.03)">
      <path
         inkscape:connector-curvature="0"
         id="path1491"
         style="fill:#ffeb00;fill-rule:evenodd"
         d="M 563,355.84 C 563,500.13 446.03,617.1 301.75,617.1 157.46,617.1 40.487,500.13 40.487,355.84 40.487,211.55 157.46,94.584 301.75,94.584 446.03,94.584 563,211.55 563,355.84 Z" />
      <g
         id="Layer1000">
        <path
           inkscape:connector-curvature="0"
           id="path1493"
           style="fill:#003055;fill-rule:evenodd"
           d="M 303.95,595.29 C 173.44,595.29 67.262,489.12 67.262,358.6 c 0,-130.51 106.178,-236.69 236.688,-236.69 130.52,0 236.7,106.18 236.7,236.69 0,130.52 -106.18,236.69 -236.7,236.69 z m 0,-456.82 v 0 c -121.38,0 -220.127,98.75 -220.127,220.13 0,121.38 98.747,220.13 220.127,220.13 121.38,0 220.14,-98.75 220.14,-220.13 0,-121.38 -98.76,-220.13 -220.14,-220.13 z" />
      </g>
      <g
         id="Layer1001">
        <g
           id="Layer1002">
          <path
             inkscape:connector-curvature="0"
             id="path1496"
             style="fill:#003055;fill-rule:evenodd"
             d="m 189.37,257.38 -54.11,-56.31 11.95,-11.47 54.1,56.31 z" />
        </g>
        <g
           id="Layer1003">
          <path
             inkscape:connector-curvature="0"
             id="path1499"
             style="fill:#003055;fill-rule:evenodd"
             d="m 414.4,257.38 54.1,-56.31 -11.94,-11.47 -54.1,56.31 z" />
        </g>
      </g>
      <g
         id="Layer1004">
        <g
           id="Layer1005">
          <path
             inkscape:connector-curvature="0"
             id="path1503"
             style="fill:#003055;fill-rule:evenodd"
             d="m 414.4,456.24 54.1,56.31 -11.94,11.47 -54.1,-56.31 z" />
        </g>
        <g
           id="Layer1006">
          <path
             inkscape:connector-curvature="0"
             id="path1506"
             style="fill:#003055;fill-rule:evenodd"
             d="m 189.37,456.24 -54.11,56.31 11.95,11.47 54.1,-56.31 z" />
        </g>
      </g>
      <path
         inkscape:connector-curvature="0"
         id="path1510"
         style="fill:#003055;fill-rule:evenodd"
         d="M 437.34,372.87 H 420.5 c -1.17,44.02 -12.07,71.78 -16.72,81.68 -113.85,35.83 -183.15,9.45 -200.09,1.48 -35.84,-113.84 -9.46,-183.14 -1.49,-200.09 113.83,-35.83 183.14,-9.45 200.09,-1.48 12.84,40.8 17.67,75.85 18.24,104.85 2.54,-7.23 6.46,-15.94 12.12,-22.37 0,0 1.64,2.07 3.91,5.59 -2.03,-27.99 -7.86,-60.54 -19.89,-97.5 l -4.19,1.36 2.44,-4.04 c -3.2,-1.94 -80.23,-46.97 -222.15,-0.79 l 1.37,4.2 -4.05,-2.45 c -1.94,3.21 -46.97,80.23 -0.79,222.15 l 4.19,-1.37 -2.44,4.05 c 2.13,1.29 36.74,21.54 101.26,21.54 32.72,0 73.14,-5.21 120.89,-20.75 l -1.37,-4.2 4.05,2.45 c 1.24,-2.05 20.09,-34.27 21.46,-94.31 z" />
      <g
         id="Layer1007">
        <path
           inkscape:connector-curvature="0"
           id="path1512"
           style="fill:#003055;fill-rule:evenodd"
           d="m 224.05,243.91 25.39,5.52 7.73,8.29 3.31,7.72 -0.55,8.29 -1.27,7.21 -1.61,7.45 -0.88,5.56 0.44,5.12 0.14,3.94 4.54,7.75 1.31,5.99 0.88,3.07 -2.05,1.32 -3.21,0.14 -1.47,1.32 2.49,1.9 c 0,0 8.19,5.7 8.77,13.74 l -1.17,2.63 -0.59,2.48 1.32,2.49 4.09,-0.29 2.34,-1.03 -0.14,-2.92 -1.47,-1.9 -0.73,-2.49 0.3,-3.65 c 0,0 0.29,-12.57 -4.83,-17.69 0.88,-3.8 2.78,-3.5 2.78,-3.5 0,0 2.92,-1.17 4.09,3.94 1.17,5.12 4.54,24.96 4.54,24.96 0,0 1.57,1.04 1.89,11.15 -0.29,5.4 3.95,12.57 3.95,12.57 0,0 3.94,7.74 23.97,10.96 0,0 5.85,0.44 6.14,4.09 0.29,3.66 -1.75,4.39 -1.75,4.39 0,0 -1.47,1.6 -2.78,4.97 -1.32,3.36 -2.92,3.5 -2.92,3.5 l -3.07,0.15 -0.44,1.61 0.44,2.34 0.58,2.48 -1.9,3.51 c 0,0 -15.2,5.55 -13.59,11.25 l 2.34,2.64 -0.44,2.48 -2.93,1.46 c 0,0 -6.13,-1.02 -4.53,8.19 1.61,9.2 13.01,20.02 12.43,33.32 -0.59,13.3 -7.6,17.84 -7.6,17.84 0,0 -7.31,8.47 -7.9,19.58 l -0.87,3.22 -2.78,3.8 c 0,0 -10.38,33.77 -0.59,41.07 0,0 5.12,1.61 7.46,-11.25 0.73,-6.44 4.97,-8.63 4.97,-8.63 l 2.19,-1.9 c 0,0 -1.31,-5.84 8.48,-10.38 9.79,-4.53 9.5,-2.63 9.5,-2.63 0,0 7.89,-1.9 19.29,-20.02 11.4,-18.13 28.36,-21.2 28.36,-21.2 0,0 11.99,-10.96 11.84,-24.84 0.15,-7.9 -13.74,-16.81 -22.22,-22.51 -2.77,-1.47 0.15,-4.83 0.15,-4.83 0,0 2.63,-1.17 2.19,-4.24 -0.44,-3.07 -5.84,-6.43 -5.84,-6.43 0,0 -10.38,-8.33 -11.11,-13.74 -0.73,-5.41 -6.14,-8.48 -6.14,-8.48 0,0 -10.38,-3.36 -9.8,-12.86 0,-4.82 8.63,-6.57 8.63,-6.57 l 3.8,-0.44 -0.73,-1.47 -2.05,-0.87 -1.46,-0.88 -4.24,-0.15 -0.88,1.47 c 0,0 -3.21,4.96 -9.21,4.96 -5.99,0 -7.89,-13.44 -7.89,-13.44 0,0 -1.61,-10.23 2.34,-14.03 3.95,-3.8 7.16,-10.67 15.64,-10.38 8.48,0.29 6.72,6.43 6.72,6.43 h 2.34 c 0,0 3.07,-5.7 5.85,-4.97 2.78,0.73 3.21,3.36 3.21,3.36 0,0 0,-5.99 4.83,-8.48 2.92,-1.46 2.04,-3.94 0.88,-4.67 -1.17,-0.73 1.02,-3.66 1.02,-3.66 0,0 3.36,-3.07 1.02,-6.14 -2.34,-3.06 2.63,-5.11 2.63,-5.11 0,0 6.58,-3.51 7.6,-6.29 1.03,-2.77 9.65,-1.02 9.65,-1.02 l 3.8,-4.39 2.92,-5.4 5.56,-6 -1.32,-2.48 -1.46,-1.61 1.61,-1.75 -1.76,-2.05 c 0,0 -9.5,-3.65 -9.79,-7.31 -0.29,-3.65 3.07,-1.9 3.07,-1.9 l 3.51,-2.19 -0.15,-2.63 -2.34,-1.61 -2.48,-1.46 c 0,0 2.05,-4.97 -2.78,-5.99 -4.82,-1.03 -9.79,3.36 -9.79,3.36 l -1.46,3.51 -2.78,2.34 -3.8,2.19 -2.19,-1.46 -2.34,-1.76 -1.02,-1.02 h -3.37 l -0.58,-2.93 -1.17,-1.89 -1.75,-2.05 -1.76,-1.76 2.05,-2.48 1.31,-2.48 0.73,-3.22 1.47,-1.46 c 0,0 0.87,-1.46 1.31,-1.9 0.44,-0.44 2.05,-3.22 2.05,-3.22 l 2.78,-1.9 2.48,-0.73 c 0,0 3.66,-0.29 4.09,-0.15 0.44,0.15 5.12,-0.14 5.12,-0.14 l 2.34,-2.49 c 0,0 -0.15,-1.9 0.44,-1.9 0.58,0 2.77,-3.65 2.77,-3.65 l 1.32,-2.92 -1.46,-3.07 -3.95,-0.73 -2.78,-1.47 -0.44,1.76 -0.43,2.48 -2.49,1.17 -0.44,-1.9 -0.87,-2.48 c -1.47,-1.32 -3.37,-3.07 -3.37,-3.07 l -0.87,-1.9 -1.03,-2.49 c 0,0 0.15,-1.9 -0.14,-1.31 0,0 -3.8,2.04 -3.66,2.48 0.15,0.44 -0.29,3.07 -0.29,3.07 l -1.9,1.32 -7.75,0.29 -4.38,-0.29 -3.8,-1.61 c 0,0 -1.76,-1.9 -1.9,-1.32 -0.15,0.59 -4.24,0.73 -4.24,0.73 0,0 -5.41,1.47 -5.26,1.9 0.14,0.44 -3.95,0.15 -3.95,0.15 l -2.48,-3.51 -1.17,-4.38 -3.37,-2.93 -2.77,-3.21 -1.61,-4.09 -3.8,-2.34 -4.53,-0.15 c 0,0 -4.82,1.32 -4.39,1.46 0.44,0.15 -3.8,0.73 -3.8,0.73 l -4.67,-0.14 -3.51,-2.19 -4.82,-3.07 -5.41,-4.68 -3.66,-4.09 -2.34,-3.8 -4.09,-2.34 -7.89,0.43 -4.39,2.05 -3.94,1.9 c 0,0 -4.39,1.76 -3.8,2.05 0.58,0.29 -1.03,3.07 -0.44,3.36 0.58,0.29 0,2.78 0.58,3.22 0.59,0.43 1.46,3.5 1.46,3.5 l -0.29,3.66 -3.65,1.02 -3.22,0.29 -2.61,-0.58 c 0,0 -2.94,2.63 -2.5,2.92 0.43,0.29 2.5,2.19 2.5,2.19 l 2.76,2.34 1.61,2.34 -1.47,2.78 -2.9,1.31 -3.53,1.17 c 0,0 -4.09,1.17 -4.09,1.61 0,0.44 -3.95,2.63 -3.95,2.63 0,0 -0.87,2.05 -0.43,2.49 0.43,0.44 2.48,1.46 2.48,1.46 l 2.63,1.17 c 0,0 0.15,1.46 0,1.9 -0.15,0.44 -2.19,2.34 -2.19,2.34 0,0 -1.9,3.36 -1.46,3.51 0.43,0.14 0,2.77 0.87,3.21 0.88,0.44 4.24,3.07 4.68,3.36 0.44,0.3 4.99,1.76 4.99,2.05 0,0.29 2.21,2.58 2.21,2.58 z" />
        <path
           inkscape:connector-curvature="0"
           id="path1514"
           style="fill:#003055;fill-rule:evenodd"
           d="m 367.7,207.86 c 0.43,0.14 4.53,1.02 4.82,1.46 0.29,0.44 3.51,3.36 3.94,3.65 0.44,0.3 1.91,2.49 2.2,2.93 0.29,0.43 0.58,4.09 0.58,4.09 l -0.87,4.68 3.07,2.34 2.04,2.33 0.29,2.93 4.53,0.87 5.12,0.59 2.49,1.31 4.23,1.9 3.22,1.76 c 0,0 2.63,2.34 2.92,2.77 0.29,0.44 2.2,3.66 2.2,3.66 0,0 -1.61,3.07 -1.61,3.65 0,0.59 -5.85,3.66 -5.85,3.66 l -4.53,1.46 -5.26,-2.19 -2.2,-2.78 -2.92,-1.61 h -3.94 l -3.07,1.76 -1.47,2.19 -0.87,2.19 -3.07,-0.15 -1.46,-1.6 c 0,0 -0.88,-2.93 -0.3,-2.93 0.59,0 -0.29,-3.21 -0.29,-3.21 l -1.17,-2.93 -2.63,-0.58 c 0,0 -3.21,-1.17 -2.78,-1.17 0.44,0 3.51,-4.38 3.51,-4.38 l 4.53,-1.76 1.46,-3.21 -1.02,-3.22 c 0,0 -2.34,-2.92 -1.9,-2.78 0.44,0.15 -1.75,-2.19 -1.75,-2.19 0,0 -3.22,-2.19 -2.78,-2.19 0.44,0 -3.07,-2.93 -3.07,-2.93 0,0 -4.53,-2.19 -3.8,-2.33 0.73,-0.15 -0.88,-3.95 -0.15,-3.95 0.74,0 0.15,-3.8 0.74,-3.65 0.58,0.14 1.46,-1.61 2.04,-1.61 0.59,0 4.83,1.17 4.83,1.17 z" />
      </g>
      <path
         inkscape:connector-curvature="0"
         id="path1517"
         style="fill:#e62b2f;fill-rule:evenodd;stroke:#003055;stroke-width:6.0001;stroke-linecap:butt;stroke-linejoin:miter;stroke-dasharray:none"
         d="m 244.35,403.21 c -14.06,15.54 -34.76,25.37 -57.84,25.37 -42.39,0 -76.74,-33.12 -76.74,-73.98 0,-40.85 34.35,-73.97 76.74,-73.97 23.66,0 44.82,10.32 58.89,26.55 l -20.65,20.12 c -8.44,-11.06 -22.04,-18.24 -37.39,-18.24 -25.61,0 -46.38,20.02 -46.38,44.71 0,24.7 20.77,44.72 46.38,44.72 14.89,0 28.14,-6.76 36.63,-17.27 z" />
      <path
         inkscape:connector-curvature="0"
         id="path1519"
         style="fill:#e62b2f;fill-rule:evenodd;stroke:#003055;stroke-width:6.0001;stroke-linecap:butt;stroke-linejoin:miter;stroke-dasharray:none"
         d="M 494,431.06 C 493.44,301.88 430.51,275.38 430.51,275.38 365.37,335 371.44,431.61 371.44,431.61 h 33.12 v -20.42 h 57.97 v 19.87 z m -76.44,-58.19 v 0 c 0,0 4.32,-22.74 15.92,-35.93 0,0 13.19,16.6 16.37,35.93 z" />
      <g
         id="Layer1008">
        <path
           inkscape:connector-curvature="0"
           id="path1521"
           style="fill:#003055;fill-rule:evenodd"
           d="m 526.07,594.06 c 0,13.4 -10.52,23.92 -24.2,23.92 -13.55,0 -24.36,-10.52 -24.36,-23.92 0,-13.12 10.81,-23.64 24.36,-23.64 13.68,0 24.2,10.52 24.2,23.64 z m -42.51,0 v 0 c 0,10.52 7.79,18.87 18.45,18.87 10.37,0 18.01,-8.35 18.01,-18.73 0,-10.52 -7.64,-19.02 -18.15,-19.02 -10.52,0 -18.31,8.5 -18.31,18.88 z m 14.56,12.39 v 0 h -5.48 v -23.63 c 2.16,-0.43 5.19,-0.72 9.08,-0.72 4.47,0 6.49,0.72 8.21,1.73 1.3,1 2.31,2.88 2.31,5.18 0,2.6 -2.02,4.61 -4.9,5.48 v 0.29 c 2.31,0.86 3.6,2.59 4.32,5.76 0.72,3.6 1.16,5.04 1.73,5.91 h -5.91 c -0.72,-0.87 -1.15,-3.03 -1.87,-5.77 -0.43,-2.59 -1.87,-3.74 -4.9,-3.74 h -2.59 z m 0.14,-13.4 v 0 h 2.6 c 3.02,0 5.47,-1.01 5.47,-3.46 0,-2.16 -1.58,-3.6 -5.04,-3.6 -1.44,0 -2.45,0.14 -3.03,0.28 z" />
      </g>
    </g>
  </g>
</svg>
