<?xml version="1.0" encoding="UTF-8" standalone="no"?>
<!-- Created with Inkscape (http://www.inkscape.org/) -->

<svg
   xmlns:dc="http://purl.org/dc/elements/1.1/"
   xmlns:cc="http://creativecommons.org/ns#"
   xmlns:rdf="http://www.w3.org/1999/02/22-rdf-syntax-ns#"
   xmlns:svg="http://www.w3.org/2000/svg"
   xmlns="http://www.w3.org/2000/svg"
   xmlns:sodipodi="http://sodipodi.sourceforge.net/DTD/sodipodi-0.dtd"
   xmlns:inkscape="http://www.inkscape.org/namespaces/inkscape"
   width="170"
   height="170"
   viewBox="0 0 44.978 44.981"
   version="1.1"
   id="svg938"
   sodipodi:docname="guadalajara.svg"
   inkscape:version="0.92.3 (2405546, 2018-03-11)">
  <defs
     id="defs932" />
  <sodipodi:namedview
     id="base"
     pagecolor="#ffffff"
     bordercolor="#666666"
     borderopacity="1.0"
     inkscape:pageopacity="0.0"
     inkscape:pageshadow="2"
     inkscape:zoom="2.8"
     inkscape:cx="43.934"
     inkscape:cy="79.018"
     inkscape:document-units="mm"
     inkscape:current-layer="layer1"
     showgrid="false"
     units="px"
     inkscape:window-width="1920"
     inkscape:window-height="1027"
     inkscape:window-x="1592"
     inkscape:window-y="-8"
     inkscape:window-maximized="1" />
  <metadata
     id="metadata935">
    <rdf:RDF>
      <cc:Work
         rdf:about="">
        <dc:format>image/svg+xml</dc:format>
        <dc:type
           rdf:resource="http://purl.org/dc/dcmitype/StillImage" />
        <dc:title></dc:title>
      </cc:Work>
    </rdf:RDF>
  </metadata>
  <g
     inkscape:label="Capa 1"
     inkscape:groupmode="layer"
     id="layer1"
     transform="translate(0,-252.03)">
    <g
       transform="matrix(0.3528,0,0,-0.3528,71.088,357.78)"
       inkscape:label="ink_ext_XXXXXX"
       id="g10">
      <g
         inkscape:export-ydpi="96"
         inkscape:export-xdpi="96"
         inkscape:export-filename="/home/maxheadroom/github/practica_sass/iconos/personalizados/guadalajara.png"
         transform="matrix(0.70219,0,0,0.70219,-198.37,157.24)"
         id="g435">
        <path
           inkscape:connector-curvature="0"
           id="path14"
           style="fill:#2350a9;fill-opacity:1;fill-rule:nonzero;stroke:none;stroke-width:0.1"
           d="m 28.33,86.668 c 0.08,-0.264 0.209,-0.48 0.383,-0.65 0.175,-0.169 0.457,-0.302 0.846,-0.399 0.388,-0.1 0.915,-0.131 1.579,-0.105 0.663,0.03 1.171,0.101 1.521,0.226 0.351,0.126 0.622,0.292 0.814,0.5 0.191,0.208 0.315,0.468 0.374,0.779 0.05,0.231 0.05,0.683 0.03,1.354 l -0.03,0.74 -5.686,-0.223 0.05,-1.229 c 0.02,-0.46 0.06,-0.791 0.121,-0.993" />
        <path
           inkscape:connector-curvature="0"
           id="path16"
           style="fill:#2350a9;fill-opacity:1;fill-rule:nonzero;stroke:none;stroke-width:0.1"
           d="m 132.58,57.611 1.23,1.858 -3.28,0.82 z" />
        <path
           inkscape:connector-curvature="0"
           id="path18"
           style="fill:#2350a9;fill-opacity:1;fill-rule:nonzero;stroke:none;stroke-width:0.1"
           d="m 29.672,96.332 c 0.255,-0.04 0.48,-0.01 0.676,0.08 0.195,0.09 0.35,0.242 0.465,0.451 0.115,0.209 0.228,0.686 0.34,1.426 l 0.199,1.316 -2.272,0.343 -0.227,-1.507 c -0.09,-0.587 -0.128,-0.962 -0.118,-1.127 0.01,-0.248 0.09,-0.462 0.25,-0.642 0.157,-0.18 0.386,-0.292 0.687,-0.338" />
        <path
           inkscape:connector-curvature="0"
           id="path20"
           style="fill:#2350a9;fill-opacity:1;fill-rule:nonzero;stroke:none;stroke-width:0.1"
           d="m 128.01,54.926 c -0.1,0.197 -0.18,0.381 -0.38,0.552 -0.22,0.19 -0.44,0.29 -0.67,0.297 -0.23,0 -0.45,-0.07 -0.66,-0.243 -0.11,-0.09 -0.38,-0.382 -0.82,-0.882 l -0.85,-0.965 1.64,-1.442 0.8,0.915 c 0.53,0.593 0.83,0.987 0.9,1.181 0.1,0.194 0.1,0.39 0,0.587" />
        <path
           inkscape:connector-curvature="0"
           id="path22"
           style="fill:#2350a9;fill-opacity:1;fill-rule:nonzero;stroke:none;stroke-width:0.1"
           d="m 41.349,58.699 c 0.167,-0.125 0.353,-0.187 0.557,-0.185 0.205,0 0.415,0.07 0.63,0.214 0.241,0.16 0.396,0.35 0.464,0.57 0.07,0.22 0.05,0.454 -0.06,0.703 -0.06,0.122 -0.27,0.462 -0.637,1.02 l -0.708,1.073 -1.819,-1.2 0.671,-1.017 c 0.435,-0.659 0.736,-1.052 0.903,-1.178" />
        <path
           inkscape:connector-curvature="0"
           id="path24"
           style="fill:#2350a9;fill-opacity:1;fill-rule:nonzero;stroke:none;stroke-width:0.1"
           d="m 33.286,96.09 c 0.263,-0.04 0.486,0 0.672,0.109 0.185,0.113 0.315,0.303 0.391,0.57 0.04,0.158 0.124,0.621 0.24,1.387 l 0.142,0.936 -1.965,0.298 -0.161,-1.068 c -0.1,-0.635 -0.147,-1.031 -0.151,-1.188 0,-0.284 0.06,-0.519 0.205,-0.704 0.144,-0.185 0.353,-0.298 0.627,-0.34" />
        <path
           inkscape:connector-curvature="0"
           id="path26"
           style="fill:#2350a9;fill-opacity:1;fill-rule:nonzero;stroke:none;stroke-width:0.1"
           d="m 91.974,36.053 c -0.137,0.345 -0.312,0.611 -0.527,0.796 -0.215,0.183 -0.477,0.299 -0.79,0.348 -0.233,0.04 -0.684,0.03 -1.354,-0.02 l -0.739,-0.05 0.414,-5.675 1.227,0.09 c 0.459,0.03 0.788,0.08 0.988,0.154 0.261,0.09 0.473,0.224 0.637,0.405 0.163,0.181 0.286,0.466 0.369,0.858 0.08,0.392 0.101,0.919 0.05,1.581 -0.05,0.662 -0.141,1.167 -0.278,1.514" />
        <path
           inkscape:connector-curvature="0"
           id="path28"
           style="fill:#2350a9;fill-opacity:1;fill-rule:nonzero;stroke:none;stroke-width:0.1"
           d="m 140.95,76.221 0.48,2.173 -3.36,-0.41 z" />
        <path
           inkscape:connector-curvature="0"
           id="path30"
           style="fill:#2350a9;fill-opacity:1;fill-rule:nonzero;stroke:none;stroke-width:0.1"
           d="M 96.989,34.363 99.166,34.83 97.4,37.711 Z" />
        <path
           inkscape:connector-curvature="0"
           id="path32"
           style="fill:#2350a9;fill-opacity:1;fill-rule:nonzero;stroke:none;stroke-width:0.1"
           d="m 110.55,38.823 1.99,1.003 -2.44,2.339 z" />
        <path
           inkscape:connector-curvature="0"
           id="path34"
           style="fill:#2350a9;fill-opacity:1;fill-rule:nonzero;stroke:none;stroke-width:0.1"
           d="m 144.36,91.648 c -0.1,0.265 -0.2,0.484 -0.37,0.656 -0.17,0.172 -0.45,0.308 -0.84,0.41 -0.39,0.101 -0.92,0.145 -1.58,0.128 -0.66,-0.02 -1.17,-0.09 -1.52,-0.206 -0.36,-0.12 -0.63,-0.283 -0.82,-0.488 -0.2,-0.207 -0.33,-0.463 -0.39,-0.773 -0.1,-0.232 -0.1,-0.684 -0.1,-1.356 v -0.74 l 5.69,0.145 v 1.23 c 0,0.459 -0.1,0.791 -0.11,0.994" />
        <path
           inkscape:connector-curvature="0"
           id="path36"
           style="fill:#2350a9;fill-opacity:1;fill-rule:nonzero;stroke:none;stroke-width:0.1"
           d="M 82.831,36.669 81.53,33.558 83.752,33.416 Z" />
        <path
           inkscape:connector-curvature="0"
           id="path38"
           style="fill:#2350a9;fill-opacity:1;fill-rule:nonzero;stroke:none;stroke-width:0.1"
           d="m 34.941,63.656 c 0.629,-0.17 1.395,-0.04 2.297,0.38 0.89,0.419 1.468,0.916 1.732,1.493 0.264,0.578 0.251,1.174 -0.04,1.789 -0.289,0.614 -0.744,1.005 -1.364,1.173 -0.621,0.168 -1.378,0.04 -2.272,-0.378 -0.881,-0.414 -1.457,-0.92 -1.729,-1.519 -0.273,-0.6 -0.27,-1.197 0,-1.792 0.28,-0.595 0.733,-0.977 1.364,-1.146" />
        <path
           inkscape:connector-curvature="0"
           id="path40"
           style="fill:#2350a9;fill-opacity:1;fill-rule:nonzero;stroke:none;stroke-width:0.1"
           d="m 34.262,72.518 c 0.15,-0.183 0.335,-0.305 0.554,-0.368 0.22,-0.06 0.451,-0.06 0.694,0.02 0.298,0.09 0.518,0.252 0.661,0.478 0.143,0.227 0.198,0.475 0.168,0.746 -0.02,0.199 -0.119,0.583 -0.294,1.149 l -0.236,0.761 -2.327,-0.72 0.266,-0.861 c 0.192,-0.621 0.363,-1.023 0.514,-1.205" />
        <path
           inkscape:connector-curvature="0"
           id="path42"
           style="fill:#2350a9;fill-opacity:1;fill-rule:nonzero;stroke:none;stroke-width:0.1"
           d="m 122.11,46.211 1.69,1.454 -2.94,1.679 z" />
        <path
           inkscape:connector-curvature="0"
           id="path44"
           style="fill:#2350a9;fill-opacity:1;fill-rule:nonzero;stroke:none;stroke-width:0.1"
           d="m 55.992,39.815 c 0.56,-0.342 1.15,-0.412 1.769,-0.206 0.62,0.205 1.189,0.732 1.709,1.581 0.514,0.839 0.721,1.573 0.624,2.2 -0.1,0.628 -0.435,1.118 -1.014,1.472 -0.58,0.355 -1.175,0.431 -1.785,0.23 -0.611,-0.201 -1.174,-0.723 -1.689,-1.565 -0.508,-0.83 -0.71,-1.57 -0.608,-2.221 0.102,-0.65 0.434,-1.148 0.994,-1.491" />
        <path
           inkscape:connector-curvature="0"
           id="path46"
           style="fill:#2350a9;fill-opacity:1;fill-rule:nonzero;stroke:none;stroke-width:0.1"
           d="m 18.116,89.565 c 0,-37.674 30.54,-68.212 68.213,-68.212 37.671,0 68.211,30.538 68.211,68.212 0,20.925 -9.43,39.635 -24.26,52.145 2.31,4.07 4.44,9.2 4.44,14.35 0,0.96 -0.1,1.92 -0.23,2.87 -0.86,5.13 -3.76,9.46 -7.97,11.9 -4.15,2.4 -9.19,2.69 -14.18,0.82 0,0 -2.44,-1.07 -2.44,-1.07 -3.4,-1.55 -6.61,-3.01 -10.555,-2.59 l -1.271,0.13 -0.106,-1.27 c 0,0 0,-0.1 0,-0.14 0,-0.53 0.236,-1.99 2.292,-3.5 -0.982,-1.13 -1.901,-2.76 -1.901,-4.76 0,-0.57 0.1,-1.17 0.267,-1.8 -1.665,0.31 -3.346,0.56 -5.049,0.74 -0.103,0.26 -0.208,0.52 -0.303,0.78 1.659,1.45 2.909,3.35 3.54,5.52 0.13,0.48 0.239,0.98 0.309,1.49 0.09,0.55 0.14,1.12 0.14,1.7 0,0.62 -0.06,1.22 -0.149,1.81 -0.08,0.51 -0.191,1 -0.33,1.48 -0.26,0.87 -0.621,1.69 -1.071,2.47 3.271,2.63 6.107,6.56 5.847,9.66 -0.3,3.6 -6.437,7.48 -7.137,7.91 l -0.24,0.15 c 0.02,0.11 0.04,0.21 0.04,0.32 v 6.15 l -0.1,0.17 c -0.12,0.22 -3.07,5.4 -9.03,4.81 l -0.67,-0.1 c 0,0 0,-6.37 0,-7.15 -1.76,-0.97 -9.42,-5.48 -9.42,-11 0,-0.1 0,-0.18 0.01,-0.28 l 0.04,-0.85 0.84,0.15 c 0.5,0.1 2.28,0.42 4.52,0.92 -0.59,-2.63 -0.35,-4.9 0,-6.41 -2.78,-1.45 -4.9,-4 -5.78,-7.07 -0.14,-0.48 -0.24,-0.98 -0.32,-1.49 -0.08,-0.55 -0.13,-1.11 -0.13,-1.68 0,-0.54 0.05,-1.06 0.12,-1.58 0.07,-0.51 0.17,-1.01 0.31,-1.5 0.6,-2.19 1.84,-4.11 3.5,-5.57 -0.09,-0.3 -0.196,-0.64 -0.326,-1 -1.568,-0.2 -3.122,-0.44 -4.654,-0.74 0.201,0.68 0.306,1.34 0.306,1.96 0,2 -0.92,3.63 -1.898,4.76 2.053,1.51 2.289,2.97 2.289,3.5 0,0.1 0,0.1 0,0.14 l -0.106,1.27 -1.271,-0.13 c -3.949,-0.42 -7.157,1.04 -10.554,2.59 l -2.391,1.06 c -5.043,1.88 -10.079,1.59 -14.226,-0.81 -4.21,-2.43 -7.114,-6.77 -7.969,-11.9 -0.159,-0.95 -0.232,-1.91 -0.232,-2.86 0,-5.37 2.305,-10.72 4.722,-14.86 -14.492,-12.51 -23.677,-31 -23.677,-51.645 z m 81.79,67.085 c -1.384,4.15 2.354,6.78 2.354,6.78 -3.184,1.66 -3.046,3.32 -3.046,3.32 5.256,-0.56 9.266,1.93 13.556,3.73 10.38,3.88 18.96,-2.63 20.48,-11.76 1.53,-9.13 -5.53,-19.65 -9.54,-24.21 -4.02,-4.57 -5.4,-11.9 -4.57,-15.78 0.83,-3.87 -2.21,-4.42 -2.21,-4.42 0.41,-3.46 -2.63,-4.16 -2.63,-4.16 0.69,-6.64 -0.42,-7.61 -0.42,-7.61 -10.38,9.41 10.66,39.3 13.98,44.83 3.32,5.54 1.38,14.95 -4.85,18.82 -6.22,3.88 -13.56,-0.83 -13.56,-5.39 0,-4.57 4.98,-5.95 7.61,-4.43 2.63,1.52 1.53,5.12 1.53,5.12 11.06,-6.09 0.55,-14.53 0.55,-14.53 0.97,-4.84 -3.32,-5.12 -3.32,-5.12 1.94,2.49 0.14,5.26 0.14,5.26 -9.27,-0.14 -9.69,8.02 -9.69,8.02 l -3.04,-2.62 c -1.66,0.83 -0.56,5.53 -0.56,5.53 -1.1,0.42 -2.764,-1.38 -2.764,-1.38 z m 37.394,-36.16 0.89,-1.52 -5.93,-6.87 -0.9,1.54 4.43,5 -6.49,-1.5 -0.89,1.51 z m -3.7,2.62 1.35,0.93 0.89,-1.28 -1.35,-0.94 z m 7.53,-13.73 c -0.14,0.41 -0.41,0.72 -0.79,0.91 -0.38,0.2 -0.9,0.26 -1.53,0.18 v 1.68 c 0.96,0.1 1.76,-0.1 2.38,-0.44 0.62,-0.39 1.08,-0.99 1.37,-1.81 0.37,-1.02 0.3,-1.99 -0.19,-2.91 -0.5,-0.92 -1.39,-1.61 -2.66,-2.07 -1.35,-0.48 -2.51,-0.53 -3.49,-0.13 -0.98,0.39 -1.67,1.12 -2.05,2.2 -0.34,0.94 -0.32,1.8 0.1,2.6 0.22,0.47 0.62,0.91 1.21,1.32 l 0.94,-1.39 c -0.39,-0.25 -0.65,-0.55 -0.79,-0.93 -0.14,-0.37 -0.14,-0.77 0,-1.18 0.21,-0.57 0.59,-0.95 1.14,-1.15 0.56,-0.2 1.32,-0.13 2.29,0.22 1.02,0.36 1.68,0.8 1.99,1.3 0.31,0.51 0.37,1.04 0.16,1.6 z m -2.71,5.62 1.49,0.7 0.67,-1.42 -1.49,-0.7 z m 4.83,-13.04 1.43,0.22 0.97,-6.127 -8.48,-1.348 -0.95,5.975 1.43,0.23 0.7,-4.349 1.88,0.298 -0.65,4.041 1.43,0.23 0.64,-4.044 2.31,0.366 z m 0.76,-27.625 -0.38,-1.707 -7.7,4.958 0.38,1.701 9.09,1.337 -0.38,-1.75 -2.06,-0.275 -0.71,-3.185 z m -9.24,-19.582 -0.97,-1.458 -5.41,7.39 0.96,1.453 8.97,-2.014 -0.99,-1.495 -2.02,0.482 -1.8,-2.72 z m -4.78,-5.786 -1.09,-1.236 -6.45,5.677 2.29,2.603 c 0.58,0.654 1.06,1.079 1.43,1.273 0.38,0.195 0.8,0.251 1.25,0.168 0.45,-0.08 0.87,-0.292 1.25,-0.627 0.48,-0.427 0.77,-0.913 0.84,-1.46 0.1,-0.549 -0.1,-1.127 -0.47,-1.737 0.4,0.123 0.78,0.185 1.13,0.186 0.35,10e-4 0.9,-0.07 1.66,-0.218 l 1.92,-0.36 -1.3,-1.479 -2.19,0.342 c -0.78,0.124 -1.29,0.184 -1.53,0.182 -0.23,0 -0.43,-0.05 -0.59,-0.134 -0.16,-0.09 -0.37,-0.275 -0.62,-0.559 l -0.22,-0.251 z m -6.56,-6.1 -1.32,-1.141 -3.2,8.579 1.32,1.138 8.08,-4.371 -1.35,-1.17 -1.82,1.012 -2.47,-2.13 z m -12.41,-7.609 -1.56,-0.787 -1.03,9.099 1.56,0.785 6.79,-6.195 -1.6,-0.807 -1.52,1.42 -2.91,-1.47 z m -10.14,5.267 1.56,0.548 2.35,-6.667 3.86,1.365 0.49,-1.365 -5.42,-1.913 z m 1.96,-8.383 -1.75,-0.375 -1.104,1.758 -3.189,-0.682 -0.251,-2.05 -1.709,-0.365 1.31,9.064 1.705,0.365 z m 12.64,8.407 1.18,1.019 c 0.29,-0.399 0.54,-0.65 0.76,-0.753 0.32,-0.157 0.63,-0.134 0.93,0.07 0.3,0.204 0.46,0.44 0.46,0.709 0,0.267 -0.19,0.69 -0.57,1.269 l -3.09,4.613 1.37,0.913 3.02,-4.521 c 0.4,-0.591 0.65,-1.078 0.77,-1.462 0.14,-0.504 0.12,-1 -0.1,-1.484 -0.18,-0.485 -0.55,-0.919 -1.12,-1.301 -0.67,-0.447 -1.32,-0.594 -1.94,-0.442 -0.63,0.153 -1.2,0.61 -1.71,1.372 z m 21.75,23.553 0.48,1.537 c 0.56,-0.134 1.02,-0.118 1.38,0.05 0.36,0.166 0.64,0.479 0.84,0.94 0.21,0.487 0.25,0.901 0.14,1.241 -0.11,0.341 -0.31,0.574 -0.6,0.699 -0.19,0.08 -0.37,0.09 -0.54,0.05 -0.18,-0.05 -0.37,-0.18 -0.58,-0.398 -0.14,-0.149 -0.43,-0.505 -0.86,-1.065 -0.56,-0.72 -1.07,-1.179 -1.52,-1.373 -0.63,-0.275 -1.26,-0.278 -1.88,-0.01 -0.4,0.171 -0.73,0.441 -0.99,0.807 -0.26,0.367 -0.39,0.793 -0.4,1.28 0,0.485 0.11,1.016 0.36,1.593 0.4,0.941 0.92,1.557 1.56,1.846 0.64,0.29 1.32,0.291 2.06,0 l -0.58,-1.544 c -0.43,0.11 -0.78,0.09 -1.05,-0.04 -0.27,-0.137 -0.5,-0.419 -0.68,-0.845 -0.19,-0.44 -0.24,-0.825 -0.16,-1.155 0.1,-0.213 0.19,-0.363 0.39,-0.451 0.19,-0.08 0.38,-0.07 0.58,0.02 0.25,0.119 0.62,0.508 1.12,1.166 0.5,0.659 0.92,1.123 1.27,1.391 0.35,0.269 0.73,0.431 1.16,0.485 0.42,0.05 0.88,-0.03 1.38,-0.239 0.46,-0.194 0.83,-0.495 1.12,-0.903 0.29,-0.408 0.44,-0.871 0.45,-1.39 0,-0.519 -0.13,-1.104 -0.41,-1.756 -0.41,-0.947 -0.95,-1.577 -1.63,-1.887 -0.68,-0.311 -1.48,-0.326 -2.41,-0.05 z m 3.99,6.823 0.49,1.487 1.56,-0.508 -0.48,-1.488 z m 4.17,10.569 -1.63,0.201 0.19,1.552 1.63,-0.2 z m -7.99,6.102 -0.1,3.011 c 0,0.678 0,1.198 0.13,1.557 0.14,0.482 0.39,0.899 0.76,1.25 0.37,0.351 0.83,0.622 1.37,0.815 0.54,0.191 1.22,0.298 2.02,0.318 0.71,0.02 1.32,-0.05 1.84,-0.205 0.63,-0.188 1.14,-0.466 1.54,-0.835 0.3,-0.278 0.54,-0.658 0.71,-1.141 0.13,-0.36 0.21,-0.844 0.22,-1.453 l 0.1,-3.1 z m -4.99,1.969 c 0,-25.409 -20.67,-46.081 -46.081,-46.081 -25.409,0 -46.082,20.672 -46.082,46.081 0,11.535 4.266,22.075 11.289,30.165 -0.03,-0.25 -0.06,-0.51 -0.109,-0.73 -0.115,-0.54 -0.173,-1.05 -0.173,-1.53 0,-0.27 0.02,-0.52 0.05,-0.77 -5.828,-7.5 -9.312,-16.918 -9.312,-27.135 0,-24.444 19.887,-44.331 44.332,-44.331 24.436,0 44.326,19.887 44.326,44.331 0,10.426 -3.58,20.295 -10.15,28.225 0,0.39 -0.1,0.79 -0.15,1.21 -0.11,0.52 -0.17,1.15 -0.19,1.83 7.9,-8.54 12.24,-19.57 12.24,-31.265 z M 93.839,32.746 C 93.681,32.107 93.427,31.582 93.078,31.168 92.815,30.855 92.447,30.6 91.973,30.4 91.619,30.253 91.139,30.157 90.532,30.113 l -3.091,-0.225 -0.625,8.567 3.002,0.22 c 0.678,0.05 1.198,0.03 1.561,-0.05 0.488,-0.113 0.916,-0.346 1.284,-0.699 0.368,-0.352 0.661,-0.797 0.879,-1.331 0.217,-0.534 0.355,-1.203 0.414,-2.006 0.05,-0.705 0.01,-1.319 -0.117,-1.841 z m -28.463,3.238 c 0.232,-0.625 0.676,-1.056 1.333,-1.293 0.325,-0.117 0.674,-0.166 1.049,-0.15 0.375,0.02 0.714,0.08 1.017,0.185 l 0.369,1.025 -1.775,0.64 0.49,1.361 3.342,-1.204 -1.16,-3.22 c -0.444,-0.213 -1.019,-0.335 -1.726,-0.364 -0.708,-0.03 -1.377,0.07 -2.009,0.297 -0.804,0.29 -1.44,0.72 -1.909,1.289 -0.469,0.569 -0.735,1.238 -0.797,2.007 -0.06,0.767 0.05,1.539 0.325,2.314 0.303,0.842 0.74,1.529 1.311,2.063 0.572,0.533 1.243,0.858 2.014,0.974 0.59,0.09 1.25,0 1.984,-0.26 0.953,-0.344 1.622,-0.823 2.006,-1.437 0.385,-0.613 0.52,-1.319 0.406,-2.117 l -1.649,0.252 c 0.03,0.435 -0.06,0.822 -0.271,1.16 -0.216,0.337 -0.548,0.586 -0.994,0.747 -0.678,0.244 -1.298,0.212 -1.861,-0.1 -0.562,-0.307 -1.004,-0.906 -1.325,-1.796 -0.346,-0.959 -0.402,-1.75 -0.17,-2.377 z m 6.535,-0.222 0.917,4.489 1.615,-0.33 -0.931,-4.559 c -0.148,-0.723 -0.223,-1.196 -0.227,-1.419 -10e-4,-0.358 0.107,-0.668 0.324,-0.929 0.218,-0.262 0.552,-0.44 1.003,-0.532 0.458,-0.09 0.824,-0.06 1.097,0.08 0.273,0.15 0.462,0.364 0.568,0.641 0.106,0.277 0.227,0.749 0.363,1.415 l 0.95,4.657 1.615,-0.331 -0.902,-4.419 c -0.207,-1.011 -0.396,-1.716 -0.569,-2.116 -0.172,-0.399 -0.405,-0.719 -0.698,-0.958 -0.294,-0.238 -0.654,-0.403 -1.081,-0.494 -0.428,-0.09 -0.958,-0.07 -1.591,0.06 -0.763,0.155 -1.324,0.366 -1.68,0.632 -0.357,0.267 -0.62,0.572 -0.788,0.915 -0.169,0.343 -0.256,0.685 -0.262,1.026 0,0.503 0.08,1.226 0.277,2.168 z m 10.198,2.961 1.738,-0.111 2.717,-8.779 -1.789,0.113 -0.587,1.993 -3.255,0.206 -0.795,-1.905 -1.744,0.111 z m -36.939,7.732 -1.175,1.154 6.021,6.129 1.175,-1.154 -0.09,-0.09 1.36,-1.117 -2.432,-6.227 5.576,3.651 1.353,-1.108 -7.707,-4.791 -1.361,1.116 3.164,8.427 z m -5.979,12.661 c -0.04,0.181 -0.169,0.43 -0.376,0.745 l -0.184,0.28 -2.993,-1.974 -0.907,1.375 7.169,4.727 1.909,-2.894 c 0.48,-0.729 0.764,-1.3 0.853,-1.715 0.09,-0.414 0.03,-0.829 -0.165,-1.245 -0.199,-0.415 -0.51,-0.763 -0.933,-1.042 -0.539,-0.354 -1.082,-0.497 -1.63,-0.428 -0.549,0.07 -1.066,0.373 -1.551,0.911 0.01,-0.418 -0.03,-0.796 -0.116,-1.133 -0.09,-0.338 -0.307,-0.855 -0.648,-1.551 l -0.85,-1.754 -1.085,1.646 0.905,2.022 c 0.324,0.721 0.517,1.194 0.575,1.42 0.06,0.226 0.07,0.429 0.03,0.61 z m 2.442,59.034 c -0.195,0.55 -0.73,1.1 -1.604,1.63 -0.929,0.56 -1.686,0.81 -2.273,0.73 -0.586,-0.1 -1.034,-0.37 -1.342,-0.88 -0.227,-0.38 -0.297,-0.77 -0.21,-1.2 0.09,-0.42 0.363,-0.85 0.829,-1.29 l -1.284,-1.09 c -0.675,0.69 -1.058,1.4 -1.152,2.12 -0.09,0.73 0.09,1.46 0.541,2.21 0.562,0.93 1.358,1.49 2.385,1.68 1.029,0.19 2.121,-0.1 3.276,-0.76 1.222,-0.74 1.989,-1.62 2.302,-2.63 0.312,-1.01 0.171,-2 -0.421,-2.98 -0.518,-0.85 -1.204,-1.38 -2.059,-1.6 -0.506,-0.12 -1.101,-0.1 -1.785,0.11 l 0.495,1.61 c 0.431,-0.15 0.836,-0.16 1.215,0 0.379,0.13 0.683,0.38 0.91,0.75 0.314,0.52 0.373,1.06 0.177,1.62 z m -0.957,-5.5 -0.669,-1.51 -6.464,2.87 -1.662,-3.75 -1.323,0.59 2.331,5.25 z M 30.8,108.9 c 0.357,0.14 0.706,0.19 1.045,0.17 0.502,0 1.214,-0.19 2.135,-0.47 l 4.391,-1.3 -0.47,-1.58 -4.458,1.32 c -0.708,0.21 -1.172,0.33 -1.394,0.36 -0.357,0 -0.676,-0.1 -0.955,-0.25 -0.28,-0.19 -0.485,-0.51 -0.616,-0.95 -0.134,-0.45 -0.138,-0.81 -0.01,-1.1 0.125,-0.28 0.321,-0.49 0.588,-0.62 0.267,-0.13 0.726,-0.29 1.378,-0.49 l 4.553,-1.35 -0.469,-1.58 -4.324,1.29 c -0.988,0.29 -1.674,0.54 -2.056,0.75 -0.383,0.2 -0.68,0.46 -0.893,0.78 -0.213,0.31 -0.345,0.68 -0.397,1.12 -0.05,0.43 0.01,0.96 0.198,1.58 0.222,0.74 0.482,1.28 0.777,1.62 0.297,0.33 0.623,0.56 0.98,0.7 z m 5.591,-8.39 -0.489,-3.228 c -0.1,-0.638 -0.196,-1.11 -0.299,-1.416 -0.104,-0.304 -0.263,-0.568 -0.478,-0.789 -0.216,-0.22 -0.483,-0.392 -0.803,-0.512 -0.321,-0.12 -0.665,-0.153 -1.032,-0.1 -0.398,0.06 -0.747,0.217 -1.049,0.471 -0.301,0.254 -0.509,0.568 -0.622,0.942 -0.225,-0.47 -0.539,-0.809 -0.942,-1.018 -0.404,-0.209 -0.85,-0.277 -1.341,-0.203 -0.386,0.06 -0.749,0.201 -1.088,0.427 -0.339,0.225 -0.596,0.503 -0.769,0.831 -0.174,0.329 -0.253,0.713 -0.238,1.154 0.01,0.276 0.09,0.934 0.24,1.974 l 0.415,2.747 z m -1.157,-9.694 0.118,-3.009 c 0.03,-0.678 0,-1.198 -0.103,-1.558 -0.13,-0.484 -0.377,-0.904 -0.742,-1.261 -0.365,-0.355 -0.819,-0.632 -1.36,-0.832 -0.542,-0.2 -1.215,-0.315 -2.019,-0.347 -0.706,-0.03 -1.319,0.03 -1.837,0.179 -0.632,0.179 -1.149,0.451 -1.551,0.814 -0.303,0.273 -0.547,0.65 -0.73,1.13 -0.135,0.358 -0.215,0.841 -0.238,1.45 L 26.65,90.48 Z m 0.332,-7.085 1.032,-5.962 -1.432,-0.248 -0.751,4.338 -1.877,-0.324 0.698,-4.037 -1.426,-0.247 -0.698,4.037 -2.305,-0.398 0.777,-4.493 -1.426,-0.247 -1.058,6.117 z m 1.145,-6.424 0.781,-2.526 c 0.296,-0.957 0.448,-1.593 0.455,-1.91 0.02,-0.484 -0.136,-0.941 -0.455,-1.37 -0.32,-0.429 -0.805,-0.744 -1.458,-0.946 -0.504,-0.157 -0.954,-0.2 -1.351,-0.133 -0.397,0.07 -0.735,0.205 -1.013,0.412 -0.279,0.207 -0.493,0.439 -0.642,0.696 -0.194,0.352 -0.402,0.884 -0.623,1.596 l -0.317,1.026 -3.095,-0.957 -0.487,1.574 z M 32.065,67.284 c 0.401,0.98 1.22,1.76 2.457,2.341 0.792,0.372 1.509,0.572 2.152,0.599 0.475,0.02 0.938,-0.04 1.389,-0.188 0.451,-0.142 0.834,-0.351 1.148,-0.626 0.422,-0.363 0.773,-0.846 1.056,-1.447 0.511,-1.089 0.565,-2.127 0.161,-3.114 -0.403,-0.986 -1.238,-1.777 -2.503,-2.372 -1.255,-0.589 -2.389,-0.727 -3.403,-0.411 -1.013,0.316 -1.775,1.016 -2.284,2.101 -0.516,1.099 -0.574,2.138 -0.173,3.117 z m 13.921,-11.266 -1.577,1.836 1.102,0.947 4.226,-4.92 -1.102,-0.946 -1.575,1.833 -5.413,-4.651 -1.073,1.25 z m 8.141,-11.656 c 0.456,0.747 0.945,1.308 1.467,1.685 0.387,0.276 0.807,0.478 1.263,0.607 0.455,0.129 0.89,0.166 1.304,0.11 0.552,-0.07 1.111,-0.282 1.677,-0.628 1.026,-0.628 1.643,-1.465 1.849,-2.511 0.206,-1.047 -0.06,-2.166 -0.786,-3.359 -0.723,-1.182 -1.594,-1.921 -2.614,-2.215 -1.02,-0.294 -2.041,-0.128 -3.064,0.497 -1.035,0.634 -1.655,1.47 -1.86,2.508 -0.204,1.038 0.05,2.14 0.764,3.306 z m 2.957,57.238 0.838,-0.73 0.825,0.75 c 4.676,4.24 3.695,11.95 0.696,19.96 1.102,0.93 2.25,1.8 3.445,2.62 0,1.02 0,2.01 0,2.97 -1.537,-0.96 -3.013,-2.02 -4.417,-3.15 -0.233,0.55 -0.473,1.1 -0.719,1.66 1.627,1.29 3.341,2.47 5.136,3.54 0,3.03 0,5.47 0,6.81 0,6.5 -2.906,9.27 -2.906,9.27 h 11.841 l 14.475,-6.37 12.489,6.37 h 13.493 c 0,0 -2.9,-2.77 -2.9,-9.27 0,-1.3 0,-3.64 0,-6.55 1.69,-0.98 3.32,-2.08 4.89,-3.28 -0.25,-0.55 -0.49,-1.1 -0.73,-1.65 -1.34,1.05 -2.72,2.02 -4.16,2.9 0,-0.95 0,-1.94 0,-2.96 1.09,-0.73 2.15,-1.51 3.18,-2.34 -3.16,-8.21 -4.31,-16.19 0.48,-20.53 l 0.83,-0.75 0.83,0.73 c 0.54,0.47 1.08,1.68 1.08,4.68 0,0.85 -0.1,1.89 -0.16,3.05 0.37,0.19 0.75,0.46 1.1,0.79 0.78,0.73 1.42,1.81 1.47,3.33 0.49,0.25 1.07,0.66 1.53,1.31 2.09,-2.75 3.81,-5.73 5.14,-8.87 2.16,-5.1 3.3,-10.623 3.3,-16.325 0,-5.771 -1.17,-11.272 -3.3,-16.279 -1.96,-4.624 -4.74,-8.817 -8.14,-12.417 -2.67,-2.828 -5.73,-5.287 -9.09,-7.286 -2.55,-1.515 -5.28,-2.765 -8.138,-3.716 -2.905,-0.965 -5.947,-1.627 -9.094,-1.932 -1.339,-0.13 -2.696,-0.201 -4.069,-0.201 -1.373,0 -2.729,0.07 -4.069,0.201 -3.234,0.313 -6.357,1.004 -9.334,2.013 -2.863,0.972 -5.591,2.237 -8.139,3.774 -3.371,2.033 -6.428,4.531 -9.094,7.399 -3.437,3.701 -6.211,8.02 -8.138,12.772 -1.966,4.843 -3.058,10.132 -3.058,15.672 0,5.542 1.092,10.835 3.058,15.675 1.3,3.2 2.982,6.21 4.997,8.96 0.346,-0.33 0.712,-0.58 1.042,-0.75 0.07,-1.92 1.06,-3.14 2.099,-3.83 0.16,-0.11 0.319,-0.21 0.477,-0.29 -0.1,-1.16 -0.158,-2.2 -0.158,-3.05 0,-3 0.538,-4.21 1.072,-4.68 z m -10.543,43.98 -1.537,2.44 c -2.841,4.73 -1.498,13.42 4.432,17.11 2.558,1.59 5.675,1.66 8.339,0.18 2.011,-1.12 3.31,-2.89 3.31,-4.51 0,-1.8 -0.96,-2.73 -1.765,-3.2 -1.229,-0.71 -2.898,-0.77 -3.969,-0.15 -1.725,1 -0.984,3.57 -0.952,3.68 l 0.869,2.92 -2.668,-1.47 c -3.529,-1.94 -5.443,-4.35 -5.688,-7.18 -0.02,-0.2 -0.03,-0.4 -0.03,-0.6 0,-3.07 1.961,-5.75 3.417,-7.32 -1.188,-0.74 -2.348,-1.52 -3.486,-2.33 -0.09,0.14 -0.187,0.29 -0.275,0.43 z m 4.774,-0.82 c 0.102,-0.73 0.353,-1.37 0.726,-1.95 -0.89,-0.57 -1.765,-1.17 -2.624,-1.78 -0.371,0.59 -0.73,1.17 -1.076,1.72 0.972,0.7 1.963,1.37 2.974,2.01 z m 15.811,7.32 c 0.627,-0.54 1.249,-1.08 1.249,-1.08 l 0.746,0.38 c 0.663,0.33 1.069,0.92 1.31,1.62 1.936,0.49 3.902,0.89 5.901,1.2 -0.455,-0.76 -0.997,-1.55 -1.658,-2.36 -3.686,-0.69 -7.261,-1.69 -10.694,-2.99 0.863,0.9 1.463,1.89 1.875,2.81 0.423,0.14 0.843,0.29 1.271,0.42 z m 11.682,3.66 c 0.24,0.54 0.43,1.04 0.58,1.5 1.82,-1.2 3.99,-1.9 6.33,-1.9 2.33,0 4.511,0.7 6.32,1.9 0.2,-0.51 0.41,-1 0.62,-1.48 -3.23,-0.76 -5.76,-2.59 -6.79,-3.43 -2.089,1.95 -4.7,2.92 -7.06,3.41 z m 22.482,-2.52 c 0.23,-0.8 0.65,-1.48 1.38,-1.84 l 0.74,-0.38 c 0,0 0.78,0.67 1.47,1.27 0.3,-0.1 0.61,-0.17 0.91,-0.26 0.35,-0.87 0.86,-1.8 1.6,-2.69 -3.46,1.22 -7.05,2.15 -10.743,2.76 -0.529,0.68 -1.053,1.45 -1.555,2.28 2.101,-0.28 4.168,-0.67 6.198,-1.14 z m 23.59,2.18 c -0.25,2.83 -2.16,5.24 -5.69,7.18 l -2.67,1.47 0.87,-2.92 c 0,-0.11 0.77,-2.68 -0.95,-3.68 -1.07,-0.62 -2.74,-0.55 -3.97,0.15 -0.81,0.47 -1.77,1.4 -1.77,3.2 0,1.62 1.3,3.39 3.31,4.51 2.67,1.48 5.78,1.41 8.34,-0.18 5.93,-3.69 7.28,-12.38 4.43,-17.11 l -1.53,-2.44 v 0 c -1.12,0.78 -2.26,1.54 -3.43,2.26 1.4,1.6 3.09,4.11 3.09,6.96 0,0.2 0,0.4 0,0.6 z m -1.16,-12.22 c -0.35,-0.55 -0.71,-1.12 -1.08,-1.72 -0.87,0.6 -1.75,1.19 -2.65,1.75 0.32,0.62 0.48,1.32 0.52,2.08 1.09,-0.67 2.16,-1.38 3.21,-2.11 z m -49.912,5.61 c 3.82,-2.64 13.45,-7.64 24.15,-0.43 0.5,-0.47 0.94,-0.85 1.3,-1.14 -1.779,-0.91 -12.449,-6.34 -13.01,-6.63 -0.58,0.26 -12.65,5.56 -14.58,6.41 0.79,0.59 1.5,1.19 2.14,1.79 z m 4.33,5.55 c 2.42,-0.43 5.17,-1.4 7.17,-3.51 l 0.51,-0.54 0.55,0.5 c 0.04,0 3.04,2.76 6.991,3.57 1.109,-2.03 2.379,-3.68 3.539,-4.92 -9.81,-6.47 -18.43,-2.1 -22.03,0.41 1.47,1.56 2.52,3.1 3.27,4.49 z m -21.657,-8.89 c 0.04,0.15 0.09,0.31 0.138,0.43 0.286,0 0.555,0 0.826,0.1 -0.322,-0.17 -0.646,-0.32 -0.964,-0.49 z m 38.387,28.44 c -0.63,0.82 -1.37,1.56 -2.2,2.19 1.41,2.06 3.941,4.82 7.28,4.88 -0.49,-2.3 -2.65,-5.08 -5.08,-7.07 z m -0.86,14.8 c 1.84,-1.2 5.53,-4.01 5.99,-6.23 -4.08,0 -7,-3.2 -8.59,-5.55 -1.389,0.79 -2.95,1.31 -4.62,1.46 0.5,2.32 1.75,6.07 4.86,8.73 0.48,0.28 0.86,0.56 1.11,0.85 0.39,0.26 0.81,0.51 1.25,0.74 z m -8.77,-10.29 c -1.19,-0.1 -2.34,-0.28 -3.42,-0.67 -0.14,0.72 -0.25,1.6 -0.25,2.6 0,1.07 0.14,2.29 0.51,3.59 2.03,0.48 4.25,1.07 6.16,1.72 -1.83,-2.58 -2.65,-5.38 -3,-7.24 z m -8.6,5.88 c 0.73,4.89 8.78,9.15 8.87,9.19 l 0.41,0.21 c 0,0 0,5.52 0,6.67 4.12,0.1 6.37,-3.22 6.8,-3.93 0,-0.39 0,-5.74 0,-5.74 0,-0.38 -0.449,-1.04 -0.85,-1.49 -0.45,-0.3 -0.87,-0.62 -1.27,-0.96 -1.65,-0.88 -4.71,-1.81 -7.91,-2.61 -0.6,-0.15 -1.19,-0.29 -1.79,-0.43 -1.49,-0.34 -2.95,-0.65 -4.26,-0.91 z m 4.19,-8.63 c 0.44,0.24 0.9,0.45 1.37,0.63 0.89,0.33 1.831,0.54 2.82,0.61 0.23,0 0.46,0 0.7,0 0.28,0 0.55,0 0.811,-0.1 1.469,-0.11 2.859,-0.55 4.08,-1.23 0.439,-0.25 0.859,-0.53 1.259,-0.84 0.68,-0.53 1.28,-1.14 1.81,-1.82 0.301,-0.4 0.58,-0.82 0.83,-1.26 0.271,-0.49 0.5,-1.02 0.69,-1.56 -4.63,0.34 -8.37,3.73 -8.419,3.77 l -0.541,0.5 -0.51,-0.54 c -2.69,-2.85 -6.75,-3.62 -9.51,-3.8 0.8,2.37 2.46,4.34 4.61,5.55 z m -5.15,-8.77 c 0,0.58 0.06,1.14 0.15,1.69 2.84,0.13 7.26,0.85 10.46,3.83 1.28,-1.05 4.901,-3.65 9.31,-3.77 0.1,-0.57 0.16,-1.15 0.16,-1.75 0,-0.56 -0.05,-1.11 -0.14,-1.65 -4.36,-0.16 -7.929,-2.73 -9.19,-3.77 -3.26,3.04 -7.78,3.72 -10.61,3.83 -0.09,0.52 -0.14,1.05 -0.14,1.59 z m 4.12,-8.09 c -0.48,0.35 -0.93,0.74 -1.34,1.17 -1.02,1.07 -1.81,2.37 -2.28,3.81 2.41,-0.13 5.89,-0.73 8.56,-2.81 0.4,-0.31 0.78,-0.63 1.13,-1 l 0.411,-0.44 0.1,-0.1 0.12,0.11 0.42,0.39 c 0.02,0 0.601,0.55 1.58,1.2 1.51,1.02 3.95,2.33 6.731,2.57 -0.5,-1.5 -1.351,-2.85 -2.45,-3.94 -0.381,-0.38 -0.8,-0.72 -1.231,-1.03 -1.65,-1.18 -3.66,-1.88 -5.83,-1.88 -2.22,0 -4.26,0.73 -5.92,1.95 z m -9.101,-2.83 c 0,0 0,0.1 0,0.1 0.03,0 0.06,-0.1 0.08,-0.1 -0.03,0 -0.05,0 -0.08,0 z m -32.161,2.76 c 1.522,9.13 10.101,15.64 20.478,11.76 4.289,-1.8 8.302,-4.29 13.56,-3.73 0,0 0.138,-1.66 -3.044,-3.32 0,0 3.736,-2.63 2.352,-6.78 0,0 -1.66,1.8 -2.767,1.38 0,0 1.107,-4.7 -0.553,-5.53 l -3.044,2.62 c 0,0 -0.416,-8.16 -9.686,-8.02 0,0 -1.8,-2.77 0.138,-5.26 0,0 -4.29,0.28 -3.321,5.12 0,0 -10.516,8.44 0.554,14.53 0,0 -1.107,-3.6 1.522,-5.12 2.629,-1.52 7.61,-0.14 7.61,4.43 0,4.56 -7.333,9.27 -13.56,5.39 -6.227,-3.87 -8.164,-13.28 -4.843,-18.82 3.321,-5.53 24.353,-35.42 13.975,-44.83 0,0 -1.106,0.97 -0.415,7.61 0,0 -3.045,0.7 -2.629,4.15 0,0 -3.045,0.56 -2.214,4.43 0.831,3.88 -0.553,11.21 -4.566,15.78 -4.013,4.56 -11.069,15.08 -9.547,24.21 z m 4.779,-19.95 c 0.4,-0.61 0.788,-1.17 1.158,-1.68 C 31.295,125.46 22.96,108.48 22.96,89.565 c 0,-34.941 28.427,-63.368 63.369,-63.368 34.941,0 63.371,28.427 63.371,63.368 0,19.165 -8.57,36.355 -22.05,47.985 0.36,0.53 0.75,1.1 1.14,1.7 14.02,-12.01 22.94,-29.82 22.94,-49.685 0,-36.061 -29.34,-65.398 -65.401,-65.398 -36.061,0 -65.399,29.337 -65.399,65.398 0,19.605 8.68,37.205 22.384,49.205" />
        <path
           inkscape:connector-curvature="0"
           id="path48"
           style="fill:#ffffff;fill-opacity:1;fill-rule:nonzero;stroke:none;stroke-width:0.1"
           d="m 40.546,115.78 c -0.379,-0.13 -0.784,-0.12 -1.215,0 l -0.495,-1.61 c 0.684,-0.2 1.279,-0.23 1.785,-0.11 0.855,0.22 1.541,0.75 2.059,1.6 0.592,0.98 0.733,1.97 0.421,2.98 -0.313,1.01 -1.08,1.89 -2.302,2.63 -1.155,0.7 -2.247,0.95 -3.276,0.76 -1.027,-0.19 -1.823,-0.75 -2.385,-1.68 -0.454,-0.75 -0.634,-1.48 -0.541,-2.21 0.09,-0.72 0.477,-1.43 1.152,-2.12 l 1.284,1.09 c -0.466,0.44 -0.742,0.87 -0.829,1.29 -0.09,0.43 -0.02,0.82 0.21,1.2 0.308,0.51 0.756,0.8 1.342,0.88 0.587,0.1 1.344,-0.17 2.273,-0.73 0.874,-0.53 1.409,-1.07 1.604,-1.63 0.196,-0.56 0.137,-1.1 -0.177,-1.62 -0.227,-0.37 -0.531,-0.62 -0.91,-0.75" />
        <path
           inkscape:connector-curvature="0"
           id="path50"
           style="fill:#ffffff;fill-opacity:1;fill-rule:nonzero;stroke:none;stroke-width:0.1"
           d="m 30.558,110.85 1.323,-0.59 1.662,3.75 6.464,-2.87 0.669,1.51 -7.787,3.45 -2.331,-5.25" />
        <path
           inkscape:connector-curvature="0"
           id="path52"
           style="fill:#ffffff;fill-opacity:1;fill-rule:nonzero;stroke:none;stroke-width:0.1"
           d="m 29.043,106.57 c -0.184,-0.61 -0.25,-1.14 -0.198,-1.57 0.05,-0.44 0.184,-0.81 0.397,-1.12 0.213,-0.32 0.51,-0.58 0.893,-0.78 0.382,-0.21 1.068,-0.46 2.056,-0.76 l 4.324,-1.28 0.469,1.58 -4.554,1.35 c -0.651,0.2 -1.11,0.36 -1.377,0.49 -0.267,0.13 -0.463,0.33 -0.588,0.62 -0.125,0.29 -0.121,0.65 0.01,1.1 0.131,0.44 0.336,0.76 0.616,0.95 0.279,0.2 0.598,0.28 0.955,0.24 0.222,0 0.686,-0.14 1.394,-0.35 l 4.458,-1.32 0.47,1.58 -4.391,1.3 c -0.921,0.28 -1.633,0.43 -2.135,0.47 -0.34,0 -0.688,0 -1.045,-0.17 -0.357,-0.14 -0.683,-0.37 -0.98,-0.71 -0.295,-0.33 -0.555,-0.87 -0.777,-1.62" />
        <path
           inkscape:connector-curvature="0"
           id="path54"
           style="fill:#ffffff;fill-opacity:1;fill-rule:nonzero;stroke:none;stroke-width:0.1"
           d="m 27.48,99.046 c -0.149,-1.04 -0.228,-1.698 -0.239,-1.974 -0.02,-0.441 0.06,-0.825 0.237,-1.154 0.174,-0.328 0.431,-0.606 0.77,-0.831 0.339,-0.226 0.702,-0.368 1.088,-0.427 0.491,-0.07 0.937,0 1.341,0.203 0.403,0.209 0.717,0.548 0.942,1.018 0.113,-0.374 0.32,-0.688 0.622,-0.942 0.302,-0.254 0.651,-0.411 1.049,-0.471 0.367,-0.06 0.711,-0.02 1.032,0.1 0.32,0.12 0.587,0.292 0.803,0.512 0.215,0.221 0.374,0.485 0.478,0.789 0.103,0.306 0.203,0.778 0.299,1.416 l 0.489,3.225 -8.495,1.28 z m 5.125,-0.724 0.161,1.068 1.965,-0.298 -0.142,-0.936 c -0.116,-0.766 -0.196,-1.229 -0.24,-1.387 -0.08,-0.267 -0.206,-0.457 -0.391,-0.57 -0.186,-0.112 -0.409,-0.148 -0.672,-0.109 -0.274,0.04 -0.483,0.155 -0.627,0.34 -0.144,0.185 -0.212,0.42 -0.205,0.704 0,0.157 0.05,0.553 0.151,1.188 z m -3.752,0.117 0.227,1.508 2.272,-0.344 -0.199,-1.316 c -0.112,-0.74 -0.225,-1.217 -0.34,-1.426 -0.115,-0.209 -0.27,-0.36 -0.465,-0.451 -0.196,-0.09 -0.421,-0.116 -0.676,-0.08 -0.301,0.05 -0.53,0.158 -0.686,0.338 -0.157,0.18 -0.241,0.394 -0.25,0.643 -0.01,0.164 0.03,0.539 0.117,1.126" />
        <path
           inkscape:connector-curvature="0"
           id="path56"
           style="fill:#ffffff;fill-opacity:1;fill-rule:nonzero;stroke:none;stroke-width:0.1"
           d="m 26.771,87.382 c 0.02,-0.609 0.104,-1.092 0.239,-1.45 0.183,-0.48 0.427,-0.857 0.73,-1.13 0.402,-0.363 0.919,-0.635 1.551,-0.814 0.518,-0.147 1.13,-0.207 1.837,-0.179 0.804,0.03 1.477,0.147 2.018,0.347 0.542,0.2 0.996,0.477 1.361,0.832 0.365,0.357 0.612,0.777 0.742,1.261 0.09,0.36 0.13,0.88 0.103,1.558 L 35.234,90.816 26.65,90.48 Z m 7.076,1.731 0.03,-0.74 c 0.03,-0.671 0.02,-1.123 -0.03,-1.354 -0.06,-0.311 -0.183,-0.571 -0.374,-0.779 -0.192,-0.208 -0.463,-0.374 -0.814,-0.5 -0.35,-0.125 -0.858,-0.2 -1.521,-0.226 -0.664,-0.03 -1.191,0 -1.579,0.105 -0.389,0.1 -0.671,0.23 -0.846,0.399 -0.174,0.17 -0.303,0.386 -0.383,0.65 -0.06,0.202 -0.103,0.533 -0.121,0.993 l -0.05,1.229 5.687,0.223" />
        <path
           inkscape:connector-curvature="0"
           id="path58"
           style="fill:#ffffff;fill-opacity:1;fill-rule:nonzero;stroke:none;stroke-width:0.1"
           d="m 29.584,76.397 -0.777,4.493 2.305,0.398 0.698,-4.037 1.426,0.247 -0.698,4.037 1.877,0.324 0.751,-4.338 1.432,0.248 -1.032,5.962 -8.466,-1.464 1.058,-6.117 1.426,0.247" />
        <path
           inkscape:connector-curvature="0"
           id="path60"
           style="fill:#ffffff;fill-opacity:1;fill-rule:nonzero;stroke:none;stroke-width:0.1"
           d="m 32.088,74.152 0.317,-1.026 c 0.221,-0.712 0.429,-1.244 0.623,-1.595 0.149,-0.258 0.363,-0.49 0.642,-0.697 0.278,-0.207 0.616,-0.344 1.013,-0.412 0.397,-0.07 0.847,-0.02 1.351,0.133 0.653,0.202 1.138,0.517 1.458,0.946 0.318,0.429 0.471,0.886 0.455,1.37 0,0.317 -0.159,0.953 -0.455,1.91 l -0.782,2.526 -8.204,-2.537 0.487,-1.575 z m 3.721,1.152 0.236,-0.761 c 0.175,-0.566 0.273,-0.95 0.294,-1.149 0.03,-0.271 -0.02,-0.519 -0.168,-0.746 -0.143,-0.226 -0.363,-0.386 -0.661,-0.478 -0.243,-0.08 -0.474,-0.08 -0.694,-0.02 -0.219,0.06 -0.404,0.185 -0.554,0.368 -0.151,0.182 -0.322,0.584 -0.514,1.205 l -0.266,0.861 2.327,0.72" />
        <path
           inkscape:connector-curvature="0"
           id="path62"
           style="fill:#ffffff;fill-opacity:1;fill-rule:nonzero;stroke:none;stroke-width:0.1"
           d="m 34.522,62.066 c 1.014,-0.316 2.148,-0.178 3.403,0.411 1.265,0.595 2.1,1.386 2.503,2.372 0.404,0.987 0.35,2.025 -0.161,3.114 -0.283,0.601 -0.634,1.084 -1.056,1.447 -0.314,0.275 -0.697,0.484 -1.148,0.626 -0.451,0.144 -0.914,0.206 -1.389,0.188 -0.643,-0.03 -1.36,-0.227 -2.152,-0.599 -1.237,-0.581 -2.056,-1.361 -2.457,-2.341 -0.401,-0.979 -0.343,-2.018 0.173,-3.117 0.509,-1.085 1.271,-1.785 2.284,-2.101 z m -0.954,4.528 c 0.272,0.599 0.848,1.105 1.729,1.519 0.894,0.42 1.651,0.546 2.272,0.378 0.62,-0.168 1.075,-0.559 1.364,-1.173 0.288,-0.615 0.301,-1.211 0.04,-1.789 -0.264,-0.577 -0.842,-1.074 -1.732,-1.493 -0.902,-0.423 -1.668,-0.55 -2.297,-0.381 -0.63,0.17 -1.084,0.552 -1.364,1.147 -0.279,0.594 -0.282,1.192 0,1.792" />
        <path
           inkscape:connector-curvature="0"
           id="path64"
           style="fill:#ffffff;fill-opacity:1;fill-rule:nonzero;stroke:none;stroke-width:0.1"
           d="m 38.589,57.086 -0.905,-2.022 1.085,-1.646 0.85,1.754 c 0.341,0.696 0.557,1.213 0.648,1.551 0.09,0.338 0.129,0.715 0.116,1.133 0.485,-0.538 1.002,-0.841 1.551,-0.911 0.548,-0.07 1.091,0.07 1.63,0.428 0.424,0.279 0.734,0.627 0.933,1.042 0.198,0.416 0.253,0.831 0.165,1.245 -0.09,0.415 -0.373,0.987 -0.853,1.715 l -1.909,2.895 -7.169,-4.728 0.907,-1.375 2.993,1.974 0.184,-0.28 c 0.207,-0.315 0.333,-0.564 0.376,-0.745 0.04,-0.18 0.03,-0.384 -0.03,-0.61 -0.06,-0.225 -0.252,-0.699 -0.576,-1.42 z m 3.005,5.008 0.708,-1.072 c 0.368,-0.559 0.58,-0.899 0.638,-1.021 0.107,-0.249 0.128,-0.483 0.06,-0.703 -0.07,-0.22 -0.223,-0.41 -0.464,-0.569 -0.215,-0.142 -0.425,-0.213 -0.63,-0.215 -0.204,0 -0.39,0.06 -0.557,0.185 -0.167,0.126 -0.468,0.519 -0.902,1.178 l -0.672,1.018 1.819,1.199" />
        <path
           inkscape:connector-curvature="0"
           id="path66"
           style="fill:#ffffff;fill-opacity:1;fill-rule:nonzero;stroke:none;stroke-width:0.1"
           d="m 47.06,54.768 1.575,-1.833 1.102,0.946 -4.226,4.92 -1.102,-0.947 1.577,-1.836 -5.412,-4.651 1.073,-1.25 5.414,4.651" />
        <path
           inkscape:connector-curvature="0"
           id="path68"
           style="fill:#ffffff;fill-opacity:1;fill-rule:nonzero;stroke:none;stroke-width:0.1"
           d="m 49.248,42.898 7.707,4.791 -1.353,1.108 -5.576,-3.651 2.432,6.227 -1.36,1.117 0.09,0.09 -1.175,1.154 -6.021,-6.129 1.175,-1.154 5.881,5.986 -3.164,-8.427 1.361,-1.116" />
        <path
           inkscape:connector-curvature="0"
           id="path70"
           style="fill:#ffffff;fill-opacity:1;fill-rule:nonzero;stroke:none;stroke-width:0.1"
           d="m 55.223,38.548 c 1.023,-0.625 2.044,-0.791 3.064,-0.497 1.02,0.294 1.891,1.033 2.614,2.215 0.73,1.193 0.992,2.312 0.786,3.359 -0.207,1.046 -0.823,1.883 -1.849,2.511 -0.567,0.346 -1.125,0.555 -1.677,0.628 -0.415,0.06 -0.849,0.02 -1.304,-0.11 -0.456,-0.129 -0.876,-0.331 -1.263,-0.607 -0.522,-0.377 -1.011,-0.938 -1.467,-1.684 -0.714,-1.166 -0.968,-2.269 -0.764,-3.307 0.205,-1.038 0.825,-1.874 1.86,-2.508 z m 0.383,4.979 c 0.515,0.842 1.078,1.364 1.689,1.565 0.61,0.201 1.205,0.125 1.785,-0.23 0.579,-0.354 0.917,-0.844 1.014,-1.472 0.1,-0.627 -0.11,-1.361 -0.624,-2.2 -0.52,-0.849 -1.089,-1.376 -1.709,-1.581 -0.619,-0.206 -1.209,-0.136 -1.769,0.206 -0.56,0.343 -0.892,0.84 -0.994,1.491 -0.102,0.651 0.1,1.39 0.608,2.221" />
        <path
           inkscape:connector-curvature="0"
           id="path72"
           style="fill:#ffffff;fill-opacity:1;fill-rule:nonzero;stroke:none;stroke-width:0.1"
           d="m 66.871,40.157 c 0.563,0.308 1.183,0.34 1.861,0.1 0.446,-0.161 0.778,-0.41 0.994,-0.747 0.215,-0.338 0.306,-0.725 0.271,-1.16 l 1.649,-0.252 c 0.114,0.798 -0.02,1.504 -0.406,2.117 -0.384,0.614 -1.053,1.093 -2.006,1.437 -0.734,0.264 -1.394,0.351 -1.984,0.26 -0.772,-0.116 -1.442,-0.441 -2.014,-0.974 -0.571,-0.534 -1.008,-1.221 -1.311,-2.063 -0.279,-0.775 -0.388,-1.547 -0.325,-2.314 0.06,-0.769 0.328,-1.438 0.797,-2.007 0.469,-0.569 1.105,-0.999 1.909,-1.289 0.632,-0.228 1.301,-0.327 2.009,-0.297 0.707,0.03 1.282,0.151 1.726,0.364 l 1.16,3.22 -3.342,1.204 -0.49,-1.361 1.775,-0.64 -0.369,-1.025 c -0.303,-0.107 -0.642,-0.169 -1.017,-0.185 -0.375,-0.02 -0.724,0.03 -1.049,0.15 -0.657,0.237 -1.101,0.668 -1.333,1.293 -0.232,0.626 -0.176,1.418 0.17,2.377 0.321,0.89 0.763,1.489 1.325,1.796" />
        <path
           inkscape:connector-curvature="0"
           id="path74"
           style="fill:#ffffff;fill-opacity:1;fill-rule:nonzero;stroke:none;stroke-width:0.1"
           d="m 72.684,31.653 c 0.356,-0.266 0.917,-0.477 1.68,-0.632 0.633,-0.13 1.163,-0.15 1.591,-0.06 0.427,0.09 0.787,0.256 1.08,0.494 0.294,0.24 0.527,0.559 0.699,0.958 0.173,0.4 0.362,1.105 0.569,2.116 l 0.902,4.419 -1.615,0.331 -0.95,-4.657 c -0.136,-0.666 -0.257,-1.138 -0.363,-1.415 -0.106,-0.277 -0.295,-0.491 -0.568,-0.641 -0.274,-0.149 -0.639,-0.177 -1.097,-0.08 -0.452,0.09 -0.785,0.27 -1.003,0.532 -0.217,0.261 -0.325,0.571 -0.324,0.929 0,0.223 0.08,0.696 0.227,1.419 l 0.931,4.559 -1.615,0.33 -0.917,-4.489 c -0.192,-0.942 -0.284,-1.665 -0.277,-2.168 0,-0.341 0.09,-0.683 0.262,-1.026 0.168,-0.343 0.431,-0.648 0.788,-0.915" />
        <path
           inkscape:connector-curvature="0"
           id="path76"
           style="fill:#ffffff;fill-opacity:1;fill-rule:nonzero;stroke:none;stroke-width:0.1"
           d="m 80.933,32.145 3.255,-0.206 0.587,-1.993 1.789,-0.113 -2.717,8.779 -1.738,0.111 -3.715,-8.372 1.744,-0.111 z m 1.898,4.524 0.921,-3.253 -2.222,0.142 z" />
        <path
           inkscape:connector-curvature="0"
           id="path78"
           style="fill:#ffffff;fill-opacity:1;fill-rule:nonzero;stroke:none;stroke-width:0.1"
           d="m 92.663,37.924 c -0.368,0.353 -0.796,0.586 -1.284,0.699 -0.363,0.08 -0.883,0.101 -1.561,0.05 l -3.002,-0.22 0.625,-8.567 3.091,0.225 c 0.607,0.04 1.087,0.14 1.441,0.287 0.474,0.2 0.842,0.455 1.105,0.768 0.349,0.414 0.603,0.939 0.761,1.578 0.129,0.522 0.168,1.136 0.117,1.841 -0.06,0.803 -0.197,1.472 -0.414,2.006 -0.218,0.534 -0.511,0.978 -0.879,1.331 z m -0.464,-4.966 c -0.08,-0.392 -0.206,-0.677 -0.369,-0.858 -0.164,-0.181 -0.376,-0.316 -0.637,-0.405 -0.2,-0.07 -0.529,-0.121 -0.988,-0.154 l -1.227,-0.09 -0.414,5.675 0.739,0.05 c 0.67,0.05 1.121,0.05 1.354,0.02 0.313,-0.05 0.575,-0.165 0.79,-0.348 0.215,-0.185 0.39,-0.451 0.527,-0.796 0.137,-0.347 0.229,-0.852 0.278,-1.514 0.05,-0.662 0.03,-1.189 -0.05,-1.581" />
        <path
           inkscape:connector-curvature="0"
           id="path80"
           style="fill:#ffffff;fill-opacity:1;fill-rule:nonzero;stroke:none;stroke-width:0.1"
           d="m 96.147,39.492 -1.31,-9.064 1.709,0.365 0.251,2.05 3.189,0.682 1.104,-1.758 1.76,0.375 -4.998,7.715 z m 0.842,-5.129 0.411,3.348 1.766,-2.881 z" />
        <path
           inkscape:connector-curvature="0"
           id="path82"
           style="fill:#ffffff;fill-opacity:1;fill-rule:nonzero;stroke:none;stroke-width:0.1"
           d="m 109.14,34.406 -0.49,1.365 -3.86,-1.365 -2.35,6.667 -1.56,-0.548 2.84,-8.032 5.42,1.913" />
        <path
           inkscape:connector-curvature="0"
           id="path84"
           style="fill:#ffffff;fill-opacity:1;fill-rule:nonzero;stroke:none;stroke-width:0.1"
           d="m 115.18,37.353 1.6,0.807 -6.79,6.195 -1.56,-0.786 1.03,-9.098 1.57,0.787 -0.28,2.045 2.91,1.47 z m -4.63,1.47 -0.45,3.342 2.44,-2.339 z" />
        <path
           inkscape:connector-curvature="0"
           id="path86"
           style="fill:#ffffff;fill-opacity:1;fill-rule:nonzero;stroke:none;stroke-width:0.1"
           d="m 119.13,39.619 c 0.57,0.382 0.94,0.816 1.12,1.301 0.18,0.484 0.2,0.98 0.1,1.484 -0.12,0.384 -0.37,0.871 -0.77,1.462 l -3.02,4.521 -1.37,-0.913 3.09,-4.613 c 0.38,-0.579 0.58,-1.002 0.57,-1.269 0,-0.269 -0.16,-0.505 -0.46,-0.709 -0.3,-0.202 -0.61,-0.225 -0.93,-0.07 -0.22,0.103 -0.47,0.354 -0.76,0.753 l -1.18,-1.019 c 0.51,-0.762 1.08,-1.219 1.71,-1.372 0.62,-0.152 1.27,0 1.94,0.442" />
        <path
           inkscape:connector-curvature="0"
           id="path88"
           style="fill:#ffffff;fill-opacity:1;fill-rule:nonzero;stroke:none;stroke-width:0.1"
           d="m 126.95,45.902 1.36,1.17 -8.08,4.371 -1.32,-1.138 3.2,-8.579 1.32,1.141 -0.76,1.917 2.47,2.13 z m -4.84,0.309 -1.25,3.133 2.94,-1.679 z" />
        <path
           inkscape:connector-curvature="0"
           id="path90"
           style="fill:#ffffff;fill-opacity:1;fill-rule:nonzero;stroke:none;stroke-width:0.1"
           d="m 128.14,52.147 c 0.16,0.09 0.36,0.132 0.59,0.134 0.24,0 0.75,-0.06 1.53,-0.182 l 2.19,-0.342 1.3,1.479 -1.92,0.36 c -0.76,0.146 -1.31,0.219 -1.66,0.218 -0.35,-10e-4 -0.73,-0.06 -1.13,-0.186 0.39,0.61 0.55,1.188 0.47,1.737 -0.1,0.547 -0.36,1.033 -0.84,1.46 -0.38,0.335 -0.8,0.545 -1.25,0.627 -0.45,0.08 -0.87,0.03 -1.25,-0.168 -0.37,-0.194 -0.85,-0.619 -1.43,-1.273 l -2.29,-2.603 6.45,-5.677 1.09,1.236 -2.69,2.37 0.22,0.251 c 0.25,0.284 0.46,0.47 0.62,0.559 z m -1.07,1.011 -0.8,-0.915 -1.64,1.442 0.85,0.965 c 0.44,0.5 0.71,0.795 0.82,0.882 0.21,0.169 0.43,0.251 0.66,0.243 0.23,0 0.45,-0.107 0.67,-0.297 0.2,-0.171 0.32,-0.355 0.38,-0.552 0.1,-0.197 0,-0.393 0,-0.587 -0.1,-0.194 -0.37,-0.588 -0.9,-1.181" />
        <path
           inkscape:connector-curvature="0"
           id="path92"
           style="fill:#ffffff;fill-opacity:1;fill-rule:nonzero;stroke:none;stroke-width:0.1"
           d="m 137.33,58.629 0.99,1.495 -8.97,2.014 -0.96,-1.453 5.41,-7.39 0.97,1.458 -1.26,1.638 1.8,2.72 z m -4.75,-1.018 -2.05,2.678 3.28,-0.82 z" />
        <path
           inkscape:connector-curvature="0"
           id="path94"
           style="fill:#ffffff;fill-opacity:1;fill-rule:nonzero;stroke:none;stroke-width:0.1"
           d="m 139.64,64.148 c 0.68,0.31 1.22,0.94 1.63,1.887 0.28,0.652 0.41,1.237 0.41,1.756 0,0.519 -0.16,0.982 -0.45,1.39 -0.29,0.408 -0.66,0.709 -1.12,0.903 -0.5,0.213 -0.96,0.293 -1.38,0.239 -0.43,-0.05 -0.81,-0.216 -1.16,-0.485 -0.35,-0.269 -0.77,-0.733 -1.27,-1.391 -0.5,-0.658 -0.87,-1.047 -1.12,-1.166 -0.2,-0.09 -0.39,-0.1 -0.58,-0.02 -0.2,0.09 -0.33,0.238 -0.39,0.451 -0.1,0.33 0,0.715 0.16,1.155 0.18,0.426 0.41,0.708 0.68,0.845 0.27,0.137 0.62,0.151 1.05,0.04 l 0.58,1.544 c -0.73,0.287 -1.42,0.286 -2.06,0 -0.64,-0.289 -1.16,-0.905 -1.56,-1.846 -0.25,-0.577 -0.37,-1.108 -0.36,-1.594 0,-0.486 0.14,-0.912 0.4,-1.279 0.26,-0.366 0.59,-0.636 0.99,-0.807 0.62,-0.268 1.25,-0.265 1.88,0 0.45,0.195 0.96,0.654 1.52,1.374 0.43,0.56 0.72,0.916 0.86,1.065 0.21,0.218 0.4,0.351 0.58,0.398 0.17,0.05 0.35,0.03 0.54,-0.05 0.29,-0.125 0.49,-0.358 0.6,-0.699 0.11,-0.34 0.1,-0.754 -0.14,-1.241 -0.2,-0.461 -0.48,-0.775 -0.84,-0.941 -0.36,-0.166 -0.82,-0.182 -1.38,-0.05 l -0.48,-1.537 c 0.93,-0.281 1.73,-0.265 2.41,0.05" />
        <path
           inkscape:connector-curvature="0"
           id="path96"
           style="fill:#ffffff;fill-opacity:1;fill-rule:nonzero;stroke:none;stroke-width:0.1"
           d="m 143.27,71.904 -1.57,0.508 -0.48,-1.487 1.57,-0.509 0.48,1.488" />
        <path
           inkscape:connector-curvature="0"
           id="path98"
           style="fill:#ffffff;fill-opacity:1;fill-rule:nonzero;stroke:none;stroke-width:0.1"
           d="m 145.01,78.874 0.39,1.75 -9.09,-1.337 -0.38,-1.701 7.7,-4.958 0.38,1.707 -1.76,1.079 0.71,3.185 z m -4.06,-2.653 -2.88,1.763 3.36,0.411 z" />
        <path
           inkscape:connector-curvature="0"
           id="path100"
           style="fill:#ffffff;fill-opacity:1;fill-rule:nonzero;stroke:none;stroke-width:0.1"
           d="m 143.94,83.247 -0.19,-1.553 1.64,-0.2 0.19,1.553 -1.64,0.2" />
        <path
           inkscape:connector-curvature="0"
           id="path102"
           style="fill:#ffffff;fill-opacity:1;fill-rule:nonzero;stroke:none;stroke-width:0.1"
           d="m 145.91,90.913 c 0,0.609 -0.1,1.093 -0.22,1.453 -0.17,0.483 -0.41,0.863 -0.71,1.141 -0.4,0.369 -0.91,0.647 -1.54,0.835 -0.52,0.154 -1.13,0.223 -1.84,0.205 -0.8,-0.02 -1.48,-0.127 -2.02,-0.318 -0.54,-0.193 -1,-0.464 -1.37,-0.815 -0.37,-0.351 -0.62,-0.768 -0.76,-1.25 -0.1,-0.359 -0.14,-0.879 -0.13,-1.557 l 0.1,-3.011 8.59,0.217 z m -7.1,-1.634 v 0.741 c 0,0.671 0,1.123 0.1,1.355 0.1,0.31 0.19,0.566 0.39,0.773 0.19,0.205 0.46,0.368 0.82,0.488 0.35,0.12 0.86,0.188 1.52,0.206 0.66,0.02 1.19,-0.03 1.58,-0.128 0.39,-0.101 0.67,-0.238 0.84,-0.41 0.17,-0.172 0.29,-0.391 0.37,-0.656 0.1,-0.203 0.1,-0.535 0.11,-0.994 v -1.23 l -5.69,-0.145" />
        <path
           inkscape:connector-curvature="0"
           id="path104"
           style="fill:#ffffff;fill-opacity:1;fill-rule:nonzero;stroke:none;stroke-width:0.1"
           d="m 141.01,101.13 -1.43,-0.23 0.65,-4.041 -1.88,-0.298 -0.7,4.349 -1.43,-0.23 0.95,-5.975 8.48,1.348 -0.97,6.127 -1.43,-0.23 0.71,-4.498 -2.31,-0.366 -0.64,4.044" />
        <path
           inkscape:connector-curvature="0"
           id="path106"
           style="fill:#ffffff;fill-opacity:1;fill-rule:nonzero;stroke:none;stroke-width:0.1"
           d="m 138.98,106.47 c -0.97,-0.34 -1.73,-0.41 -2.29,-0.21 -0.55,0.19 -0.93,0.58 -1.14,1.15 -0.15,0.41 -0.15,0.8 0,1.18 0.14,0.38 0.4,0.68 0.79,0.92 l -0.94,1.4 c -0.59,-0.41 -0.99,-0.85 -1.21,-1.32 -0.37,-0.8 -0.39,-1.66 -0.1,-2.6 0.38,-1.08 1.07,-1.81 2.05,-2.2 0.98,-0.4 2.14,-0.35 3.49,0.13 1.27,0.46 2.16,1.15 2.66,2.07 0.49,0.92 0.56,1.89 0.19,2.91 -0.29,0.82 -0.75,1.42 -1.37,1.81 -0.62,0.38 -1.42,0.53 -2.38,0.44 v -1.69 c 0.63,0.1 1.15,0 1.53,-0.17 0.38,-0.19 0.65,-0.5 0.79,-0.91 0.2,-0.56 0.15,-1.09 -0.16,-1.6 -0.31,-0.5 -0.97,-0.94 -1.99,-1.31" />
        <path
           inkscape:connector-curvature="0"
           id="path108"
           style="fill:#ffffff;fill-opacity:1;fill-rule:nonzero;stroke:none;stroke-width:0.1"
           d="m 140.58,114.28 -0.67,1.42 -1.49,-0.7 0.67,-1.42 1.49,0.7" />
        <path
           inkscape:connector-curvature="0"
           id="path110"
           style="fill:#ffffff;fill-opacity:1;fill-rule:nonzero;stroke:none;stroke-width:0.1"
           d="m 129.3,117.14 6.49,1.5 -4.43,-5 0.9,-1.54 5.93,6.87 -0.89,1.51 -8.89,-1.83 0.89,-1.51" />
        <path
           inkscape:connector-curvature="0"
           id="path112"
           style="fill:#ffffff;fill-opacity:1;fill-rule:nonzero;stroke:none;stroke-width:0.1"
           d="m 134.95,124.04 -1.35,-0.93 0.89,-1.29 1.35,0.94 -0.89,1.28" />
        <path
           inkscape:connector-curvature="0"
           id="path114"
           style="fill:#ffffff;fill-opacity:1;fill-rule:nonzero;stroke:none;stroke-width:0.1"
           d="m 52.041,142.81 c -0.373,0.58 -0.624,1.22 -0.726,1.95 -1.011,-0.64 -2.002,-1.31 -2.974,-2.01 0.346,-0.55 0.705,-1.13 1.076,-1.72 0.859,0.61 1.734,1.21 2.624,1.78" />
        <path
           inkscape:connector-curvature="0"
           id="path116"
           style="fill:#ffffff;fill-opacity:1;fill-rule:nonzero;stroke:none;stroke-width:0.1"
           d="m 96.647,152.08 c 3.693,-0.61 7.283,-1.54 10.743,-2.76 -0.74,0.89 -1.25,1.83 -1.6,2.69 -0.3,0.1 -0.61,0.17 -0.91,0.26 -0.69,-0.6 -1.47,-1.27 -1.47,-1.27 l -0.74,0.38 c -0.73,0.36 -1.15,1.04 -1.38,1.84 -2.03,0.48 -4.097,0.86 -6.198,1.14 0.502,-0.83 1.026,-1.6 1.555,-2.28" />
        <path
           inkscape:connector-curvature="0"
           id="path118"
           style="fill:#ffffff;fill-opacity:1;fill-rule:nonzero;stroke:none;stroke-width:0.1"
           d="m 122.64,141.46 c 0.37,0.6 0.73,1.17 1.08,1.72 -1.05,0.73 -2.12,1.44 -3.21,2.11 0,-0.76 -0.2,-1.46 -0.52,-2.08 0.9,-0.56 1.78,-1.15 2.65,-1.75" />
        <path
           inkscape:connector-curvature="0"
           id="path120"
           style="fill:#ffffff;fill-opacity:1;fill-rule:nonzero;stroke:none;stroke-width:0.1"
           d="m 86.329,24.167 c 36.061,0 65.401,29.337 65.401,65.398 0,19.865 -8.92,37.675 -22.94,49.685 -0.39,-0.61 -0.78,-1.18 -1.14,-1.7 13.48,-11.63 22.05,-28.82 22.05,-47.985 0,-34.941 -28.43,-63.369 -63.371,-63.369 -34.942,0 -63.369,28.428 -63.369,63.369 0,18.905 8.335,35.895 21.513,47.515 -0.37,0.52 -0.758,1.08 -1.158,1.69 -13.705,-12 -22.385,-29.6 -22.385,-49.205 0,-36.061 29.338,-65.398 65.399,-65.398" />
        <path
           inkscape:connector-curvature="0"
           id="path122"
           style="fill:#ffffff;fill-opacity:1;fill-rule:nonzero;stroke:none;stroke-width:0.1"
           d="m 63.98,148.85 c 3.433,1.3 7.008,2.3 10.694,2.99 0.661,0.81 1.203,1.6 1.658,2.36 -1.999,-0.31 -3.965,-0.71 -5.901,-1.2 -0.241,-0.7 -0.647,-1.29 -1.31,-1.62 L 68.375,151 c 0,0 -0.622,0.54 -1.249,1.08 -0.428,-0.13 -0.848,-0.28 -1.271,-0.42 -0.412,-0.92 -1.012,-1.91 -1.875,-2.81" />
        <path
           inkscape:connector-curvature="0"
           id="path124"
           style="fill:#ffffff;fill-opacity:1;fill-rule:nonzero;stroke:none;stroke-width:0.1"
           d="m 56.619,145.88 c -0.05,-0.12 -0.09,-0.28 -0.138,-0.44 0.318,0.18 0.642,0.33 0.964,0.5 -0.271,0 -0.54,-0.1 -0.826,-0.1" />
        <path
           inkscape:connector-curvature="0"
           id="path126"
           style="fill:#ffffff;fill-opacity:1;fill-rule:nonzero;stroke:none;stroke-width:0.1"
           d="m 113.54,124.55 c 0.24,0.55 0.48,1.1 0.73,1.65 -1.57,1.2 -3.2,2.3 -4.89,3.28 0,-0.65 0,-1.33 0,-2.04 1.44,-0.87 2.82,-1.84 4.16,-2.89" />
        <path
           inkscape:connector-curvature="0"
           id="path128"
           style="fill:#ffffff;fill-opacity:1;fill-rule:nonzero;stroke:none;stroke-width:0.1"
           d="m 120.36,119 c 0.1,-0.43 0.14,-0.82 0.15,-1.21 6.57,-7.93 10.15,-17.799 10.15,-28.225 0,-24.444 -19.89,-44.331 -44.331,-44.331 -24.445,0 -44.332,19.887 -44.332,44.331 0,10.217 3.484,19.635 9.312,27.135 -0.03,0.25 -0.05,0.5 -0.05,0.77 0,0.48 0.06,0.99 0.173,1.53 0.05,0.22 0.08,0.48 0.109,0.73 -7.023,-8.09 -11.289,-18.64 -11.289,-30.165 0,-25.409 20.673,-46.081 46.082,-46.081 25.416,0 46.086,20.672 46.086,46.081 0,11.695 -4.34,22.725 -12.24,31.265 0,-0.68 0.1,-1.31 0.19,-1.83" />
        <path
           inkscape:connector-curvature="0"
           id="path130"
           style="fill:#ffffff;fill-opacity:1;fill-rule:nonzero;stroke:none;stroke-width:0.1"
           d="m 57.752,125.68 c 0.246,-0.56 0.486,-1.11 0.719,-1.66 1.404,1.13 2.88,2.19 4.417,3.15 0,0.71 0,1.39 0,2.05 -1.795,-1.07 -3.509,-2.25 -5.136,-3.54" />
        <path
           inkscape:connector-curvature="0"
           id="path132"
           style="fill:#ffffff;fill-opacity:1;fill-rule:nonzero;stroke:none;stroke-width:0.1"
           d="M 55.693,109.62 V 61.121 c 2.666,-2.868 5.723,-5.366 9.094,-7.399 v 39.141 c -1.465,2.398 -1.899,4.008 -1.899,4.008 0,0 0,15.549 0,27.319 -1.195,-0.81 -2.343,-1.68 -3.445,-2.61 2.999,-8.01 3.98,-15.72 -0.696,-19.96 l -0.825,-0.75 -0.838,0.73 c -0.534,0.47 -1.072,1.68 -1.072,4.68 0,0.85 0.06,1.89 0.158,3.05 -0.158,0.1 -0.317,0.18 -0.477,0.29" />
        <path
           inkscape:connector-curvature="0"
           id="path134"
           style="fill:#ffffff;fill-opacity:1;fill-rule:nonzero;stroke:none;stroke-width:0.1"
           d="m 47.555,105.24 c -1.966,-4.85 -3.058,-10.133 -3.058,-15.675 0,-5.54 1.092,-10.829 3.058,-15.672 v 31.347" />
        <path
           inkscape:connector-curvature="0"
           id="path136"
           style="fill:#ffffff;fill-opacity:1;fill-rule:nonzero;stroke:none;stroke-width:0.1"
           d="m 99.492,84.206 c -2.42,-1.864 -5.415,-3.72 -9.094,-5.41 V 47.935 c 3.147,0.305 6.189,0.967 9.094,1.932 v 34.339" />
        <path
           inkscape:connector-curvature="0"
           id="path138"
           style="fill:#ffffff;fill-opacity:1;fill-rule:nonzero;stroke:none;stroke-width:0.1"
           d="m 82.26,78.615 c -3.782,1.7 -6.854,3.582 -9.334,5.473 v -34.14 c 2.977,-1.009 6.1,-1.7 9.334,-2.013 v 30.68" />
        <path
           inkscape:connector-curvature="0"
           id="path140"
           style="fill:#ffffff;fill-opacity:1;fill-rule:nonzero;stroke:none;stroke-width:0.1"
           d="m 124.86,73.286 c 2.13,5.007 3.3,10.508 3.3,16.279 0,5.702 -1.14,11.225 -3.3,16.325 V 73.286" />
        <path
           inkscape:connector-curvature="0"
           id="path142"
           style="fill:#ffffff;fill-opacity:1;fill-rule:nonzero;stroke:none;stroke-width:0.1"
           d="m 109.38,96.871 c 0,0 -0.4,-1.5 -1.75,-3.762 V 53.583 c 3.37,1.999 6.42,4.458 9.09,7.286 v 49.251 c -0.35,-0.33 -0.73,-0.59 -1.1,-0.79 0.1,-1.16 0.16,-2.2 0.16,-3.05 0,-3 -0.54,-4.21 -1.08,-4.68 l -0.83,-0.73 -0.83,0.75 c -4.79,4.34 -3.64,12.32 -0.48,20.53 -1.03,0.83 -2.09,1.61 -3.18,2.34 0,-11.81 0,-27.619 0,-27.619" />
        <path
           inkscape:connector-curvature="0"
           id="path144"
           style="fill:#ed1c24;fill-opacity:1;fill-rule:nonzero;stroke:none;stroke-width:0.1"
           d="M 90.398,78.796 C 89.107,78.203 87.74,77.628 86.272,77.084 h -0.276 c -1.319,0.488 -2.559,1.002 -3.736,1.53 V 47.935 c 1.34,-0.13 2.696,-0.201 4.069,-0.201 1.373,0 2.73,0.07 4.069,0.201 v 30.861" />
        <path
           inkscape:connector-curvature="0"
           id="path146"
           style="fill:#ed1c24;fill-opacity:1;fill-rule:nonzero;stroke:none;stroke-width:0.1"
           d="m 107.63,93.109 c -1.43,-2.4 -3.92,-5.658 -8.138,-8.903 V 49.867 c 2.858,0.951 5.588,2.201 8.138,3.716 v 39.526" />
        <path
           inkscape:connector-curvature="0"
           id="path148"
           style="fill:#ed1c24;fill-opacity:1;fill-rule:nonzero;stroke:none;stroke-width:0.1"
           d="m 116.72,60.869 c 3.4,3.6 6.18,7.793 8.14,12.417 v 32.604 c -1.33,3.14 -3.05,6.12 -5.14,8.87 -0.46,-0.65 -1.04,-1.06 -1.52,-1.31 -0.1,-1.52 -0.7,-2.6 -1.47,-3.33 V 60.869" />
        <path
           inkscape:connector-curvature="0"
           id="path150"
           style="fill:#ed1c24;fill-opacity:1;fill-rule:nonzero;stroke:none;stroke-width:0.1"
           d="m 55.693,109.62 c -1.039,0.69 -2.025,1.91 -2.099,3.83 -0.33,0.17 -0.696,0.42 -1.042,0.75 -2.015,-2.75 -3.697,-5.76 -4.997,-8.96 V 73.893 c 1.927,-4.752 4.701,-9.071 8.138,-12.772 v 48.499" />
        <path
           inkscape:connector-curvature="0"
           id="path152"
           style="fill:#ed1c24;fill-opacity:1;fill-rule:nonzero;stroke:none;stroke-width:0.1"
           d="m 72.926,84.088 c -4.166,3.176 -6.67,6.371 -8.139,8.775 V 53.722 c 2.548,-1.537 5.276,-2.802 8.139,-3.774 v 34.14" />
        <path
           inkscape:connector-curvature="0"
           id="path176"
           style="fill:#f1c218;fill-opacity:1;fill-rule:nonzero;stroke:none;stroke-width:0.1"
           d="m 62.888,96.871 c 0,0 0.434,-1.61 1.899,-4.008 1.469,-2.404 3.973,-5.599 8.139,-8.775 2.48,-1.891 5.552,-3.773 9.334,-5.474 1.177,-0.528 2.417,-1.042 3.736,-1.53 h 0.276 c 1.468,0.544 2.835,1.119 4.126,1.712 3.679,1.69 6.674,3.546 9.094,5.41 4.218,3.245 6.708,6.503 8.138,8.903 1.35,2.262 1.75,3.762 1.75,3.762 0,0 0,15.809 0,27.609 0,1.03 0,2.02 0,2.96 0,0.71 0,1.39 0,2.04 0,2.91 0,5.25 0,6.55 0,6.5 2.9,9.27 2.9,9.27 H 98.787 L 86.298,138.93 71.823,145.3 H 59.982 c 0,0 2.906,-2.77 2.906,-9.27 0,-1.34 0,-3.78 0,-6.81 0,-0.66 0,-1.34 0,-2.05 0,-0.96 0,-1.95 0,-2.98 0,-11.77 0,-27.319 0,-27.319 z m 1.26,17.129 1.391,2.26 -1.357,2.19 h 1.423 l 0.403,-0.75 c 0.117,-0.22 0.226,-0.44 0.335,-0.66 h 0.02 c 0.109,0.24 0.209,0.46 0.319,0.69 l 0.359,0.72 h 1.383 L 67.076,116.33 68.441,114 H 67 l -0.411,0.8 c -0.117,0.22 -0.226,0.44 -0.317,0.67 h -0.03 c -0.1,-0.23 -0.21,-0.45 -0.31,-0.67 L 65.547,114 Z m 3.848,-20.092 -0.411,0.801 c -0.117,0.219 -0.226,0.447 -0.317,0.675 h -0.03 c -0.1,-0.237 -0.21,-0.456 -0.31,-0.675 l -0.385,-0.801 h -1.399 l 1.391,2.268 -1.357,2.185 h 1.424 l 0.402,-0.746 c 0.117,-0.228 0.226,-0.447 0.335,-0.666 h 0.02 c 0.109,0.246 0.209,0.465 0.319,0.693 l 0.36,0.719 h 1.382 l -1.348,-2.121 1.365,-2.332 z m 18.958,-13.393 -0.411,0.8 c -0.117,0.219 -0.225,0.448 -0.317,0.675 H 86.2 c -0.101,-0.237 -0.211,-0.456 -0.31,-0.675 l -0.385,-0.8 h -1.398 l 1.389,2.267 -1.356,2.186 h 1.424 l 0.402,-0.747 c 0.117,-0.228 0.225,-0.446 0.334,-0.665 h 0.02 c 0.108,0.246 0.208,0.465 0.318,0.692 l 0.359,0.72 h 1.383 l -1.349,-2.121 1.365,-2.332 z m 18.476,13.393 -0.41,0.801 c -0.12,0.219 -0.23,0.447 -0.32,0.675 v 0 c -0.1,-0.238 -0.21,-0.456 -0.31,-0.675 L 104,93.908 h -1.4 l 1.39,2.268 -1.35,2.185 h 1.42 l 0.4,-0.746 c 0.12,-0.228 0.23,-0.447 0.34,-0.666 v 0 c 0.11,0.246 0.21,0.465 0.32,0.693 l 0.36,0.719 h 1.38 l -1.34,-2.121 1.36,-2.332 z m 1,20.092 -0.41,0.8 c -0.12,0.22 -0.23,0.44 -0.32,0.67 v 0 c -0.1,-0.23 -0.21,-0.45 -0.31,-0.67 L 105,114 h -1.4 l 1.39,2.26 -1.35,2.19 h 1.42 l 0.4,-0.75 c 0.12,-0.22 0.23,-0.44 0.34,-0.66 v 0 c 0.11,0.24 0.21,0.46 0.32,0.69 l 0.36,0.72 h 1.38 l -1.34,-2.12 1.36,-2.33 z m -2.81,29.25 h 1.42 l 0.4,-0.75 c 0.12,-0.22 0.23,-0.44 0.34,-0.66 v 0 c 0.1,0.25 0.2,0.46 0.31,0.69 l 0.36,0.72 h 1.39 l -1.35,-2.12 1.36,-2.33 h -1.44 l -0.41,0.8 c -0.12,0.22 -0.22,0.45 -0.32,0.67 v 0 c -0.1,-0.23 -0.21,-0.45 -0.31,-0.67 l -0.39,-0.8 h -1.4 l 1.39,2.27 z m -39.438,0 h 1.424 l 0.402,-0.75 c 0.117,-0.22 0.226,-0.44 0.335,-0.66 h 0.02 c 0.109,0.25 0.209,0.46 0.319,0.69 l 0.36,0.72 h 1.382 l -1.348,-2.12 1.365,-2.33 H 67 l -0.41,0.8 c -0.118,0.22 -0.227,0.45 -0.318,0.67 h -0.03 c -0.1,-0.23 -0.21,-0.45 -0.31,-0.67 l -0.385,-0.8 h -1.399 l 1.391,2.27 z m 6.292,-4.55 h 31.656 v -19.38 c 0,0 0,-11.79 0,-19.374 0,-7.529 -15.603,-13.495 -15.822,-13.579 v 0 0 0 c 0,0 0,0 0,0 v 0 c -0.221,0.08 -15.823,6.05 -15.823,13.579 0,7.584 0,19.374 0,19.374 v 19.38" />
        <path
           inkscape:connector-curvature="0"
           id="path178"
           style="fill:#2350a9;fill-opacity:1;fill-rule:nonzero;stroke:none;stroke-width:0.1"
           d="m 70.474,119.32 c 0,0 0,-11.79 0,-19.373 0,-7.53 15.602,-13.496 15.823,-13.58 v 0 c 0,0 0,0 0,0 v 0 0 0 c 0.219,0.08 15.823,6.05 15.823,13.58 0,7.583 0,19.373 0,19.373 V 138.7 H 70.474 Z M 81.788,99.375 c -0.745,-0.418 -0.932,0 -1.768,0.755 -0.84,0.75 -2.141,0.58 -2.7,0.33 -0.56,-0.25 -1.79,-0.834 -2.255,-1.336 -0.466,-0.501 0,-0.852 0.465,-1.268 0.466,-0.419 0.838,-0.67 1.49,-0.752 0.652,-0.08 0.3,-0.92 0.3,-0.92 0,0 -2.068,0.252 -2.534,0.586 -0.466,0.334 -1.024,1.42 -1.21,2.105 -0.186,0.685 0,1.165 0,1.665 0,0.51 0,2.68 -0.466,2.93 -0.466,0.25 -0.838,1.52 -0.653,2.86 0.187,1.33 0.466,3.17 0.466,4.26 0,1.08 -0.372,0.68 -1.023,2.02 -0.653,1.34 0,1.84 0.744,1.09 0.746,-0.76 0.746,-1.76 0.653,-3.36 -0.09,-1.61 -0.09,-3.51 -0.09,-4.35 0,-1.44 0.93,-1.77 1.303,-1.6 0.373,0.16 1.677,0.85 1.677,1.35 0,0.5 -0.187,1.26 -0.187,1.26 0,0 -0.558,0.75 -0.651,1.25 -0.09,0.5 -0.374,1 -0.559,1.5 -0.187,0.5 -0.187,0.92 0.09,1.52 0.279,0.61 0.373,1.84 0.373,1.84 0,0 1.523,1.56 2.254,1.34 1.953,-0.59 3.35,-0.84 3.91,-1.26 0.558,-0.41 -0.287,-1.11 -0.373,-1.08 -1.955,0.75 -1.768,-0.17 -1.768,-0.59 0,-0.42 0,-0.93 0.651,-0.58 0.651,0.35 1.117,0.25 0.837,-0.27 -0.278,-0.52 -0.465,-0.92 -0.278,-1.25 0.185,-0.34 1.303,-0.76 1.767,-0.59 0.466,0.17 2.533,2.27 2.533,2.27 l 0.09,-1.1 -1.697,-1.25 c 0,0 -1.115,-0.67 -1.023,-1.34 0.09,-0.67 0.746,-0.33 0.746,-0.33 L 84.785,108 84.6,107.33 c 0,0 -2.812,-1.76 -3.184,-1.84 -0.373,-0.1 -0.931,0.58 -0.931,0.58 0,0 -1.21,-1.77 -1.77,-2.27 -0.56,-0.5 -0.745,-0.67 -0.745,-1 0,-0.33 1.025,-0.92 1.676,-1.42 0.652,-0.5 1.582,-0.75 1.582,-0.75 0,0 2.142,1 2.607,1.33 0.468,0.34 0.393,0.84 0.299,1.26 -0.09,0.42 0.561,0.25 0.561,-0.17 0,-0.42 -0.09,-2 -0.09,-2 0,0 -2.067,-1.258 -2.812,-1.675 z m 4.642,-6.283 h -0.06 c -2.666,0 -3.862,1.736 -3.862,1.736 1.516,1.031 2.593,3.546 2.932,4.421 v 17.991 c -5.713,0.26 -10.24,3.74 -10.24,8 0,4.43 4.894,8.02 10.931,8.02 6.038,0 10.932,-3.59 10.932,-8.02 0,-4.13 -4.246,-7.53 -9.707,-7.98 V 99.247 c 0.34,-0.875 1.416,-3.388 2.932,-4.419 0,0 -1.195,-1.736 -3.861,-1.736 z m 14.4,19.518 c -0.65,-1.34 -1.022,-0.94 -1.022,-2.02 0,-1.09 0.282,-2.93 0.462,-4.26 0.19,-1.34 -0.18,-2.61 -0.649,-2.86 -0.467,-0.25 -0.467,-2.42 -0.467,-2.93 0,-0.5 0.186,-0.98 0,-1.665 -0.185,-0.685 -0.744,-1.771 -1.209,-2.105 -0.467,-0.334 -2.534,-0.586 -2.534,-0.586 0,0 -0.352,0.835 0.3,0.92 0.651,0.08 1.023,0.333 1.489,0.752 0.466,0.416 0.932,0.767 0.466,1.268 -0.466,0.502 -1.695,1.086 -2.255,1.336 -0.559,0.25 -1.86,0.42 -2.7,-0.33 -0.836,-0.755 -1.023,-1.173 -1.768,-0.755 -0.746,0.417 -2.812,1.675 -2.812,1.675 0,0 -0.09,1.58 -0.09,2 0,0.42 0.653,0.59 0.56,0.17 -0.09,-0.42 -0.168,-0.92 0.298,-1.26 0.466,-0.33 2.608,-1.33 2.608,-1.33 0,0 0.931,0.25 1.582,0.75 0.652,0.5 1.677,1.09 1.677,1.42 0,0.34 -0.186,0.5 -0.745,1 -0.56,0.5 -1.77,2.28 -1.77,2.28 0,0 -0.558,-0.67 -0.932,-0.59 -0.371,0.1 -3.183,1.84 -3.183,1.84 l -0.186,0.67 1.879,-0.92 c 0,0 0.655,-0.34 0.746,0.33 0.09,0.67 -1.022,1.34 -1.022,1.34 l -1.697,1.25 0.09,1.1 c 0,0 2.068,-2.1 2.533,-2.27 0.465,-0.17 1.582,0.25 1.768,0.59 0.187,0.33 0,0.73 -0.278,1.25 -0.28,0.52 0.186,0.62 0.837,0.27 0.651,-0.35 0.651,0.16 0.651,0.58 0,0.42 0.187,1.34 -1.768,0.59 -0.09,0 -0.931,0.67 -0.373,1.08 0.56,0.42 1.957,0.67 3.91,1.26 0.73,0.21 2.254,-1.34 2.254,-1.34 0,0 0.09,-1.24 0.373,-1.84 0.28,-0.6 0.28,-1.02 0.09,-1.52 -0.185,-0.5 -0.467,-1 -0.559,-1.5 -0.09,-0.5 -0.652,-1.25 -0.652,-1.25 0,0 -0.186,-0.76 -0.186,-1.26 0,-0.5 1.304,-1.19 1.677,-1.35 0.373,-0.17 1.302,0.16 1.302,1.6 0,0.84 0,2.74 -0.09,4.35 -0.09,1.6 -0.09,2.6 0.655,3.35 0.74,0.76 1.39,0.25 0.74,-1.08" />
        <path
           inkscape:connector-curvature="0"
           id="path180"
           style="fill:#ffffff;fill-opacity:1;fill-rule:nonzero;stroke:none;stroke-width:0.1"
           d="m 82.688,185.62 c 3.2,0.8 6.26,1.73 7.91,2.61 0.4,0.34 0.82,0.66 1.27,0.96 0.401,0.45 0.85,1.11 0.85,1.49 0,0 0,5.35 0,5.74 -0.43,0.71 -2.68,3.98 -6.8,3.93 0,-1.15 0,-6.67 0,-6.67 l -0.41,-0.21 c -0.09,0 -8.14,-4.3 -8.87,-9.19 1.31,0.26 2.77,0.57 4.26,0.91 0.6,0.14 1.19,0.28 1.79,0.43 z m 4.691,13.09 c 3.598,-0.42 4.013,-2.91 4.013,-2.91 -2.353,-0.41 -4.013,-1.52 -4.013,-1.52 z m 4.29,-3.87 v -4.02 c 0,0 -1.106,-3.18 -13.422,-5.26 0,0 0.969,4.85 13.422,9.28" />
        <path
           inkscape:connector-curvature="0"
           id="path182"
           style="fill:#b2b2b2;fill-opacity:1;fill-rule:nonzero;stroke:none;stroke-width:0.1"
           d="m 86.248,140.59 c 0.561,0.29 11.23,5.72 13.01,6.63 -0.36,0.29 -0.8,0.67 -1.3,1.14 -10.7,-7.21 -20.33,-2.21 -24.15,0.43 -0.64,-0.6 -1.35,-1.2 -2.14,-1.79 1.93,-0.85 14,-6.15 14.58,-6.41" />
        <path
           inkscape:connector-curvature="0"
           id="path184"
           style="fill:#b2b2b2;fill-opacity:1;fill-rule:nonzero;stroke:none;stroke-width:0.1"
           d="m 96.898,149.44 c -1.16,1.24 -2.43,2.89 -3.539,4.92 -3.951,-0.81 -6.951,-3.53 -6.991,-3.57 l -0.55,-0.5 -0.51,0.54 c -2,2.11 -4.75,3.08 -7.17,3.51 -0.75,-1.39 -1.8,-2.93 -3.27,-4.49 3.6,-2.51 12.22,-6.88 22.03,-0.41" />
        <path
           inkscape:connector-curvature="0"
           id="path186"
           style="fill:#b2b2b2;fill-opacity:1;fill-rule:nonzero;stroke:none;stroke-width:0.1"
           d="m 85.868,152.33 c 1.03,0.84 3.56,2.67 6.79,3.43 -0.21,0.48 -0.42,0.97 -0.62,1.48 -1.81,-1.2 -3.99,-1.9 -6.32,-1.9 -2.34,0 -4.51,0.7 -6.33,1.9 -0.15,-0.46 -0.34,-0.96 -0.58,-1.5 2.36,-0.49 4.97,-1.46 7.06,-3.41" />
        <path
           inkscape:connector-curvature="0"
           id="path188"
           style="fill:#b2b2b2;fill-opacity:1;fill-rule:nonzero;stroke:none;stroke-width:0.1"
           d="m 91.548,158.72 c 0.43,0.31 0.85,0.65 1.231,1.03 1.099,1.09 1.95,2.44 2.45,3.94 -2.781,-0.24 -5.221,-1.55 -6.731,-2.57 -0.979,-0.65 -1.559,-1.18 -1.58,-1.2 l -0.42,-0.39 -0.12,-0.11 -0.1,0.1 -0.411,0.44 c -0.35,0.37 -0.73,0.69 -1.13,1 -2.67,2.08 -6.15,2.68 -8.56,2.81 0.47,-1.44 1.26,-2.74 2.28,-3.81 0.41,-0.43 0.86,-0.82 1.34,-1.17 1.66,-1.22 3.7,-1.95 5.92,-1.95 2.17,0 4.18,0.7 5.83,1.88" />
        <path
           inkscape:connector-curvature="0"
           id="path190"
           style="fill:#b2b2b2;fill-opacity:1;fill-rule:nonzero;stroke:none;stroke-width:0.1"
           d="m 95.618,165.23 c 0.09,0.54 0.14,1.09 0.14,1.65 0,0.6 -0.06,1.18 -0.16,1.75 -4.409,0.12 -8.03,2.72 -9.31,3.77 -3.2,-2.98 -7.62,-3.7 -10.46,-3.83 -0.09,-0.55 -0.15,-1.11 -0.15,-1.69 0,-0.54 0.05,-1.07 0.14,-1.59 2.83,-0.11 7.35,-0.79 10.61,-3.83 1.261,1.04 4.83,3.61 9.19,3.77" />
        <path
           inkscape:connector-curvature="0"
           id="path192"
           style="fill:#b2b2b2;fill-opacity:1;fill-rule:nonzero;stroke:none;stroke-width:0.1"
           d="m 86.238,174.44 0.54,-0.5 c 0.05,0 3.79,-3.43 8.42,-3.77 -0.19,0.54 -0.42,1.07 -0.69,1.56 -0.25,0.44 -0.53,0.86 -0.83,1.26 -0.53,0.68 -1.13,1.29 -1.81,1.82 -0.4,0.31 -0.82,0.59 -1.259,0.84 -1.221,0.68 -2.611,1.12 -4.081,1.23 -0.26,0 -0.53,0.1 -0.81,0.1 -0.24,0 -0.47,0 -0.7,0 -0.99,-0.1 -1.93,-0.28 -2.82,-0.61 -0.47,-0.18 -0.93,-0.39 -1.37,-0.63 -2.15,-1.21 -3.81,-3.18 -4.61,-5.55 2.76,0.18 6.82,0.95 9.51,3.8 l 0.51,0.54" />
        <path
           inkscape:connector-curvature="0"
           id="path194"
           style="fill:#b2b2b2;fill-opacity:1;fill-rule:nonzero;stroke:none;stroke-width:0.1"
           d="m 92.668,176.08 c 0.83,-0.63 1.57,-1.37 2.2,-2.19 2.43,1.99 4.59,4.77 5.08,7.07 -3.339,-0.1 -5.87,-2.82 -7.28,-4.88" />
        <path
           inkscape:connector-curvature="0"
           id="path196"
           style="fill:#b2b2b2;fill-opacity:1;fill-rule:nonzero;stroke:none;stroke-width:0.1"
           d="m 86.788,178.37 c 1.67,-0.15 3.231,-0.67 4.62,-1.46 1.59,2.35 4.51,5.54 8.59,5.55 -0.46,2.22 -4.15,5.03 -5.99,6.23 -0.44,-0.23 -0.86,-0.48 -1.25,-0.74 -0.25,-0.29 -0.63,-0.57 -1.11,-0.85 -3.11,-2.66 -4.36,-6.41 -4.86,-8.73" />
        <path
           inkscape:connector-curvature="0"
           id="path198"
           style="fill:#b2b2b2;fill-opacity:1;fill-rule:nonzero;stroke:none;stroke-width:0.1"
           d="m 81.568,180.33 c 0,-1 0.11,-1.88 0.25,-2.6 1.08,0.39 2.23,0.62 3.42,0.67 0.35,1.86 1.17,4.66 3,7.24 -1.91,-0.65 -4.13,-1.24 -6.16,-1.72 -0.37,-1.3 -0.51,-2.52 -0.51,-3.59" />
        <path
           inkscape:connector-curvature="0"
           id="path200"
           style="fill:#ed1c24;fill-opacity:1;fill-rule:nonzero;stroke:none;stroke-width:0.1"
           d="m 91.669,190.82 v 4.02 c -12.453,-4.43 -13.422,-9.28 -13.422,-9.28 12.316,2.08 13.422,5.26 13.422,5.26" />
        <path
           inkscape:connector-curvature="0"
           id="path202"
           style="fill:#ed1c24;fill-opacity:1;fill-rule:nonzero;stroke:none;stroke-width:0.1"
           d="m 87.379,198.71 v -4.43 c 0,0 1.66,1.11 4.013,1.52 0,0 -0.415,2.5 -4.013,2.91" />
        <path
           inkscape:connector-curvature="0"
           id="path204"
           style="fill:#f1c218;fill-opacity:1;fill-rule:nonzero;stroke:none;stroke-width:0.1"
           d="m 48.083,134.51 c 4.013,-4.57 5.397,-11.9 4.566,-15.78 -0.831,-3.87 2.214,-4.42 2.214,-4.42 -0.416,-3.46 2.629,-4.16 2.629,-4.16 -0.691,-6.64 0.415,-7.61 0.415,-7.61 10.378,9.41 -10.654,39.3 -13.975,44.83 -3.321,5.54 -1.384,14.95 4.843,18.82 6.227,3.88 13.56,-0.83 13.56,-5.39 0,-4.57 -4.982,-5.95 -7.61,-4.43 -2.629,1.52 -1.522,5.12 -1.522,5.12 -11.07,-6.09 -0.554,-14.53 -0.554,-14.53 -0.969,-4.84 3.321,-5.12 3.321,-5.12 -1.938,2.49 -0.138,5.26 -0.138,5.26 9.27,-0.14 9.686,8.02 9.686,8.02 l 3.044,-2.62 c 1.66,0.83 0.553,5.53 0.553,5.53 1.107,0.42 2.767,-1.38 2.767,-1.38 1.384,4.15 -2.352,6.78 -2.352,6.78 3.182,1.66 3.044,3.32 3.044,3.32 -5.258,-0.56 -9.271,1.93 -13.56,3.73 -10.377,3.88 -18.956,-2.63 -20.479,-11.76 -1.521,-9.13 5.535,-19.65 9.548,-24.21" />
        <path
           inkscape:connector-curvature="0"
           id="path206"
           style="fill:#f1c218;fill-opacity:1;fill-rule:nonzero;stroke:none;stroke-width:0.1"
           d="m 103.23,152.5 3.04,2.62 c 0,0 0.42,-8.16 9.69,-8.02 0,0 1.8,-2.77 -0.14,-5.26 0,0 4.29,0.28 3.32,5.12 0,0 10.51,8.44 -0.55,14.53 0,0 1.1,-3.6 -1.53,-5.12 -2.63,-1.52 -7.61,-0.14 -7.61,4.43 0,4.56 7.34,9.27 13.56,5.39 6.23,-3.87 8.17,-13.28 4.84,-18.82 -3.32,-5.53 -24.35,-35.42 -13.97,-44.83 0,0 1.11,0.97 0.42,7.61 0,0 3.04,0.7 2.63,4.15 0,0 3.04,0.56 2.21,4.43 -0.83,3.88 0.55,11.21 4.56,15.78 4.02,4.56 11.07,15.08 9.55,24.21 -1.52,9.13 -10.1,15.64 -20.48,11.76 -4.29,-1.8 -8.3,-4.29 -13.556,-3.73 0,0 -0.138,-1.66 3.046,-3.32 0,0 -3.739,-2.63 -2.354,-6.78 0,0 1.664,1.79 2.764,1.38 0,0 -1.1,-4.71 0.56,-5.54" />
        <path
           inkscape:connector-curvature="0"
           id="path208"
           style="fill:#f1c218;fill-opacity:1;fill-rule:nonzero;stroke:none;stroke-width:0.1"
           d="m 84.695,103.05 c 0,0.42 -0.654,0.59 -0.561,0.17 0.09,-0.42 0.169,-0.92 -0.299,-1.26 -0.465,-0.33 -2.607,-1.33 -2.607,-1.33 0,0 -0.93,0.25 -1.582,0.75 -0.652,0.5 -1.676,1.09 -1.676,1.42 0,0.34 0.185,0.5 0.745,1 0.56,0.5 1.77,2.28 1.77,2.28 0,0 0.558,-0.67 0.931,-0.59 0.372,0.1 3.184,1.84 3.184,1.84 l 0.185,0.67 -1.879,-0.92 c 0,0 -0.654,-0.34 -0.746,0.33 -0.09,0.67 1.023,1.34 1.023,1.34 l 1.697,1.25 -0.09,1.1 c 0,0 -2.067,-2.1 -2.533,-2.27 -0.464,-0.17 -1.582,0.25 -1.767,0.59 -0.187,0.33 0,0.73 0.278,1.25 0.28,0.52 -0.186,0.62 -0.837,0.27 -0.651,-0.35 -0.651,0.16 -0.651,0.58 0,0.42 -0.188,1.34 1.768,0.59 0.08,0 0.931,0.67 0.373,1.08 -0.56,0.42 -1.957,0.67 -3.91,1.26 -0.731,0.21 -2.254,-1.34 -2.254,-1.34 0,0 -0.09,-1.24 -0.373,-1.84 -0.28,-0.6 -0.28,-1.02 -0.09,-1.52 0.185,-0.5 0.466,-1 0.559,-1.5 0.09,-0.5 0.651,-1.25 0.651,-1.25 0,0 0.187,-0.76 0.187,-1.26 0,-0.5 -1.304,-1.19 -1.677,-1.35 -0.373,-0.17 -1.303,0.16 -1.303,1.6 0,0.84 0,2.74 0.09,4.35 0.09,1.6 0.09,2.6 -0.652,3.35 -0.744,0.76 -1.398,0.25 -0.744,-1.08 0.651,-1.34 1.023,-0.94 1.023,-2.02 0,-1.09 -0.279,-2.93 -0.466,-4.26 -0.185,-1.34 0.187,-2.61 0.653,-2.86 0.466,-0.25 0.466,-2.42 0.466,-2.93 0,-0.5 -0.186,-0.98 0,-1.665 0.186,-0.686 0.744,-1.772 1.209,-2.106 0.467,-0.334 2.534,-0.585 2.534,-0.585 0,0 0.352,0.835 -0.299,0.919 -0.652,0.08 -1.024,0.334 -1.49,0.752 -0.466,0.416 -0.931,0.768 -0.466,1.269 0.466,0.502 1.696,1.086 2.255,1.336 0.56,0.25 1.861,0.42 2.701,-0.33 0.836,-0.755 1.023,-1.173 1.768,-0.755 0.745,0.417 2.812,1.675 2.812,1.675 0,0 0.09,1.58 0.09,2" />
        <path
           inkscape:connector-curvature="0"
           id="path210"
           style="fill:#f1c218;fill-opacity:1;fill-rule:nonzero;stroke:none;stroke-width:0.1"
           d="m 100.09,113.69 c -0.75,-0.75 -0.75,-1.75 -0.656,-3.35 0.09,-1.61 0.09,-3.51 0.09,-4.35 0,-1.44 -0.929,-1.77 -1.302,-1.6 -0.373,0.16 -1.677,0.85 -1.677,1.35 0,0.5 0.186,1.26 0.186,1.26 0,0 0.559,0.75 0.652,1.25 0.09,0.5 0.374,1 0.559,1.5 0.187,0.5 0.187,0.92 -0.09,1.52 -0.28,0.6 -0.373,1.84 -0.373,1.84 0,0 -1.524,1.56 -2.254,1.34 -1.953,-0.59 -3.35,-0.84 -3.91,-1.26 -0.558,-0.42 0.287,-1.12 0.373,-1.08 1.955,0.75 1.768,-0.17 1.768,-0.59 0,-0.42 0,-0.93 -0.651,-0.58 -0.651,0.35 -1.117,0.25 -0.837,-0.27 0.278,-0.52 0.465,-0.92 0.278,-1.25 -0.185,-0.34 -1.303,-0.76 -1.768,-0.59 -0.465,0.17 -2.533,2.27 -2.533,2.27 l -0.09,-1.1 1.697,-1.25 c 0,0 1.115,-0.67 1.022,-1.34 -0.09,-0.67 -0.746,-0.33 -0.746,-0.33 l -1.879,0.92 0.186,-0.67 c 0,0 2.812,-1.76 3.183,-1.84 0.374,-0.1 0.932,0.59 0.932,0.59 0,0 1.21,-1.78 1.77,-2.28 0.559,-0.5 0.745,-0.66 0.745,-1 0,-0.33 -1.025,-0.92 -1.677,-1.42 -0.651,-0.5 -1.582,-0.75 -1.582,-0.75 0,0 -2.141,1 -2.608,1.33 -0.466,0.34 -0.392,0.84 -0.298,1.26 0.09,0.42 -0.56,0.25 -0.56,-0.17 0,-0.42 0.09,-2 0.09,-2 0,0 2.066,-1.258 2.812,-1.675 0.745,-0.418 0.932,0 1.768,0.755 0.84,0.75 2.141,0.58 2.7,0.33 0.56,-0.25 1.789,-0.834 2.255,-1.336 0.466,-0.501 0,-0.852 -0.466,-1.268 -0.466,-0.419 -0.838,-0.67 -1.489,-0.752 -0.652,-0.08 -0.3,-0.92 -0.3,-0.92 0,0 2.067,0.252 2.534,0.586 0.465,0.334 1.024,1.42 1.209,2.105 0.186,0.685 0,1.165 0,1.665 0,0.51 0,2.68 0.467,2.93 0.47,0.25 0.84,1.52 0.65,2.86 -0.18,1.33 -0.463,3.17 -0.463,4.26 0,1.08 0.373,0.68 1.023,2.02 0.65,1.34 0,1.84 -0.74,1.09" />
        <path
           inkscape:connector-curvature="0"
           id="path212"
           style="fill:#cb792b;fill-opacity:1;fill-rule:nonzero;stroke:none;stroke-width:0.1"
           d="m 87.359,99.247 v 18.013 c -0.402,0 -0.81,-0.1 -1.225,-0.1 -0.233,0 -0.461,0 -0.691,0 V 99.249 c -0.339,-0.875 -1.416,-3.39 -2.932,-4.421 0,0 1.196,-1.736 3.862,-1.736 h 0.06 c 2.666,0 3.861,1.736 3.861,1.736 -1.516,1.031 -2.592,3.544 -2.932,4.419" />
        <path
           inkscape:connector-curvature="0"
           id="path214"
           style="fill:#ed1c24;fill-opacity:1;fill-rule:nonzero;stroke:none;stroke-width:0.1"
           d="m 65.547,138.8 0.385,0.8 c 0.1,0.22 0.21,0.44 0.31,0.68 h 0.03 c 0.09,-0.23 0.2,-0.46 0.317,-0.68 L 67,138.8 h 1.441 l -1.366,2.33 1.349,2.12 h -1.383 l -0.359,-0.72 c -0.11,-0.22 -0.21,-0.44 -0.319,-0.69 h -0.02 c -0.109,0.22 -0.218,0.44 -0.335,0.66 l -0.403,0.75 h -1.423 l 1.357,-2.18 -1.391,-2.27 h 1.399" />
        <path
           inkscape:connector-curvature="0"
           id="path216"
           style="fill:#ed1c24;fill-opacity:1;fill-rule:nonzero;stroke:none;stroke-width:0.1"
           d="m 104.98,138.8 0.39,0.8 c 0.1,0.22 0.21,0.44 0.31,0.68 v 0 c 0.1,-0.23 0.2,-0.46 0.32,-0.68 l 0.41,-0.8 h 1.44 l -1.36,2.33 1.35,2.12 h -1.39 l -0.36,-0.72 c -0.11,-0.22 -0.21,-0.44 -0.31,-0.69 v 0 c -0.11,0.22 -0.22,0.44 -0.34,0.66 l -0.4,0.75 h -1.42 l 1.35,-2.18 -1.39,-2.27 h 1.4" />
        <path
           inkscape:connector-curvature="0"
           id="path218"
           style="fill:#ed1c24;fill-opacity:1;fill-rule:nonzero;stroke:none;stroke-width:0.1"
           d="m 65.932,114.8 c 0.1,0.22 0.21,0.44 0.31,0.67 h 0.03 c 0.09,-0.22 0.2,-0.45 0.317,-0.67 L 67,114 h 1.441 l -1.365,2.33 1.348,2.12 h -1.383 l -0.359,-0.72 c -0.11,-0.23 -0.21,-0.44 -0.319,-0.69 h -0.02 c -0.109,0.22 -0.218,0.44 -0.335,0.66 l -0.403,0.75 h -1.423 l 1.357,-2.18 -1.391,-2.27 h 1.399 l 0.385,0.8" />
        <path
           inkscape:connector-curvature="0"
           id="path220"
           style="fill:#ed1c24;fill-opacity:1;fill-rule:nonzero;stroke:none;stroke-width:0.1"
           d="m 106.51,116.33 1.34,2.12 h -1.38 l -0.36,-0.72 c -0.11,-0.23 -0.21,-0.45 -0.32,-0.69 v 0 c -0.11,0.22 -0.22,0.44 -0.34,0.66 l -0.4,0.75 h -1.42 l 1.35,-2.18 -1.39,-2.27 h 1.4 l 0.39,0.8 c 0.1,0.22 0.21,0.44 0.31,0.67 v 0 c 0.1,-0.22 0.2,-0.45 0.32,-0.67 l 0.41,-0.8 h 1.44 l -1.36,2.33" />
        <path
           inkscape:connector-curvature="0"
           id="path222"
           style="fill:#ed1c24;fill-opacity:1;fill-rule:nonzero;stroke:none;stroke-width:0.1"
           d="m 69.42,98.361 h -1.383 l -0.359,-0.719 c -0.11,-0.228 -0.21,-0.447 -0.319,-0.693 h -0.02 c -0.109,0.219 -0.218,0.438 -0.335,0.666 l -0.403,0.746 h -1.423 l 1.357,-2.185 -1.391,-2.268 h 1.399 l 0.385,0.801 c 0.1,0.219 0.21,0.437 0.31,0.675 h 0.03 c 0.09,-0.228 0.2,-0.456 0.317,-0.675 l 0.411,-0.801 h 1.441 l -1.366,2.332 1.349,2.121" />
        <path
           inkscape:connector-curvature="0"
           id="path224"
           style="fill:#ed1c24;fill-opacity:1;fill-rule:nonzero;stroke:none;stroke-width:0.1"
           d="m 106.85,98.361 h -1.38 l -0.36,-0.719 C 105,97.414 104.9,97.195 104.79,96.949 v 0 c -0.11,0.219 -0.22,0.438 -0.34,0.666 l -0.4,0.746 h -1.42 l 1.35,-2.185 -1.39,-2.268 h 1.4 l 0.39,0.801 c 0.1,0.219 0.21,0.437 0.31,0.675 v 0 c 0.1,-0.228 0.2,-0.456 0.32,-0.675 l 0.41,-0.801 h 1.44 l -1.36,2.332 1.35,2.121" />
        <path
           inkscape:connector-curvature="0"
           id="path226"
           style="fill:#ed1c24;fill-opacity:1;fill-rule:nonzero;stroke:none;stroke-width:0.1"
           d="m 88.378,84.968 h -1.383 l -0.359,-0.72 c -0.11,-0.227 -0.21,-0.446 -0.318,-0.692 H 86.3 c -0.109,0.219 -0.217,0.437 -0.334,0.665 l -0.402,0.747 H 84.14 l 1.356,-2.186 -1.389,-2.267 h 1.398 l 0.385,0.8 c 0.1,0.219 0.209,0.438 0.31,0.675 h 0.03 c 0.09,-0.227 0.2,-0.456 0.317,-0.675 l 0.411,-0.8 h 1.44 l -1.366,2.332 1.35,2.121" />
        <path
           inkscape:connector-curvature="0"
           id="path228"
           style="fill:#33b540;fill-opacity:1;fill-rule:nonzero;stroke:none;stroke-width:0.1"
           d="m 87.359,117.26 c 5.46,0.45 9.707,3.85 9.707,7.98 0,4.43 -4.894,8.02 -10.932,8.02 -6.037,0 -10.931,-3.59 -10.931,-8.02 0,-4.26 4.527,-7.74 10.24,-8 0.23,0 0.458,0 0.691,0 0.415,0 0.823,0 1.225,0.1" />
      </g>
    </g>
  </g>
</svg>
